<svg width="466" height="417" viewBox="0 0 466 417" fill="none" xmlns="http://www.w3.org/2000/svg">
<g clip-path="url(#clip0_15_31)">
<rect width="466" height="417" rx="16" fill="white"/>
<path opacity="0.1" d="M80.5726 406.909C53.5591 420.102 60.309 420.213 44.9663 432.283L99.2791 584.061L1046.62 234.397L949.596 -36.7462C949.596 -36.7462 936.75 9.96107 915.721 15.9464C883.168 25.2122 890.319 1.60466 858.99 14.7526C835.695 24.5287 849.296 75.0756 814.903 86.3586C771.456 100.612 779.567 69.9922 735.726 82.3825C704.938 91.0838 693.044 55.0292 662.709 65.6488C615.845 82.0547 598.838 55.2647 557.955 67.6187C461.467 96.7746 515.141 -26.8595 421.818 11.8593C330.75 49.6422 486.726 159.262 392.423 186.962C368.673 193.938 353.933 183.672 331.585 194.273C303.985 207.366 315.232 231.347 289.686 247.016C256.291 267.498 226.034 242.497 191.113 261.266C157.661 279.245 171.844 313.154 135.818 326.525C87.3009 344.531 126.799 384.332 80.5726 406.909Z" fill="url(#paint0_linear_15_31)"/>
<path d="M44.9663 432.283C60.3091 420.213 53.5591 420.102 80.5726 406.909C126.799 384.332 87.3009 344.531 135.818 326.525C171.844 313.154 157.661 279.245 191.113 261.266C226.034 242.497 256.291 267.498 289.686 247.016C315.232 231.347 303.985 207.366 331.585 194.274C353.933 183.672 368.673 193.938 392.423 186.962C486.726 159.262 330.75 49.6422 421.818 11.8593C515.141 -26.8595 461.467 96.7746 557.955 67.6187C598.838 55.2647 615.845 82.0547 662.709 65.6488C693.044 55.0292 704.938 91.0838 735.726 82.3826C779.567 69.9923 771.456 100.612 814.903 86.3586C849.296 75.0756 835.695 24.5287 858.99 14.7526C890.319 1.60468 883.168 25.2122 915.721 15.9464C936.75 9.96109 949.596 -36.7462 949.596 -36.7462" stroke="#5D81FD" stroke-width="3" stroke-linecap="round"/>
<path d="M39.75 58.425C38.5167 58.425 37.375 58.1917 36.325 57.725C35.275 57.2583 34.35 56.6083 33.55 55.775C32.7667 54.9417 32.15 53.9667 31.7 52.85C31.2667 51.7333 31.05 50.525 31.05 49.225C31.05 47.9917 31.275 46.85 31.725 45.8C32.175 44.7333 32.8 43.8083 33.6 43.025C34.4 42.225 35.3417 41.6083 36.425 41.175C37.5083 40.725 38.6833 40.4917 39.95 40.475C40.4667 40.475 41.0167 40.525 41.6 40.625C42.2 40.725 42.7833 40.875 43.35 41.075C43.9167 41.275 44.4083 41.5167 44.825 41.8C45.1583 42.0167 45.45 42.25 45.7 42.5C45.9667 42.7333 46.1 43.0167 46.1 43.35C46.1167 43.5167 46.0833 43.7083 46 43.925C45.9167 44.125 45.8 44.3333 45.65 44.55C45.3833 44.9333 45.1167 45.2083 44.85 45.375C44.6 45.5417 44.35 45.625 44.1 45.625C43.9667 45.625 43.8083 45.5833 43.625 45.5C43.4417 45.4167 43.1917 45.275 42.875 45.075C42.725 44.975 42.4917 44.8667 42.175 44.75C41.8583 44.6333 41.4917 44.5333 41.075 44.45C40.675 44.35 40.2583 44.3 39.825 44.3C38.875 44.3 38.025 44.5167 37.275 44.95C36.525 45.3667 35.9333 45.95 35.5 46.7C35.0833 47.45 34.8667 48.3167 34.85 49.3C34.8667 50.3 35.0917 51.2 35.525 52C35.9583 52.7833 36.55 53.4083 37.3 53.875C38.0667 54.3417 38.9167 54.575 39.85 54.575C40.1833 54.575 40.5167 54.5583 40.85 54.525C41.2 54.4917 41.5333 54.4417 41.85 54.375C42.1833 54.2917 42.4833 54.1917 42.75 54.075V51.025H40.075C39.7917 51.025 39.5333 51 39.3 50.95C39.0833 50.9 38.9 50.7583 38.75 50.525C38.6167 50.2917 38.55 49.9083 38.55 49.375C38.55 48.8417 38.625 48.4667 38.775 48.25C38.925 48.0167 39.1167 47.875 39.35 47.825C39.6 47.775 39.8583 47.75 40.125 47.75H44.85C45.4 47.7667 45.7917 47.8667 46.025 48.05C46.2583 48.2333 46.4083 48.4667 46.475 48.75C46.5417 49.0167 46.575 49.3083 46.575 49.625V55.075C46.575 55.475 46.3917 55.8917 46.025 56.325C45.6583 56.7417 45.1583 57.1083 44.525 57.425C44.125 57.6417 43.6667 57.825 43.15 57.975C42.65 58.1083 42.1167 58.2167 41.55 58.3C40.9833 58.3833 40.3833 58.425 39.75 58.425ZM51.0211 58.225C50.4211 58.225 49.9878 58.1417 49.7211 57.975C49.4544 57.7917 49.2878 57.55 49.2211 57.25C49.1711 56.95 49.1461 56.6417 49.1461 56.325V42.65C49.1461 41.9167 49.2878 41.4167 49.5711 41.15C49.8544 40.8833 50.3628 40.75 51.0961 40.75H60.5461C60.8794 40.75 61.1878 40.7833 61.4711 40.85C61.7544 40.9 61.9878 41.0583 62.1711 41.325C62.3544 41.5917 62.4461 42.0417 62.4461 42.675C62.4461 43.275 62.3544 43.7083 62.1711 43.975C61.9878 44.2417 61.7461 44.4083 61.4461 44.475C61.1628 44.525 60.8544 44.55 60.5211 44.55H52.9461V47.775H58.0961C58.4294 47.775 58.7211 47.8 58.9711 47.85C59.2378 47.9 59.4461 48.0417 59.5961 48.275C59.7461 48.5083 59.8211 48.9 59.8211 49.45C59.8211 49.9667 59.7461 50.3417 59.5961 50.575C59.4461 50.8083 59.2378 50.95 58.9711 51C58.7044 51.05 58.3961 51.075 58.0461 51.075H52.9461V54.425H60.5461C60.8794 54.425 61.1878 54.4583 61.4711 54.525C61.7544 54.5917 61.9878 54.7583 62.1711 55.025C62.3544 55.275 62.4461 55.7167 62.4461 56.35C62.4461 56.95 62.3544 57.3833 62.1711 57.65C61.9878 57.9167 61.7461 58.075 61.4461 58.125C61.1628 58.1917 60.8544 58.225 60.5211 58.225H51.0211ZM66.0049 58.225C65.4215 58.225 64.9965 58.1333 64.7299 57.95C64.4632 57.7667 64.2965 57.5333 64.2299 57.25C64.1632 56.95 64.1299 56.6333 64.1299 56.3V42.575C64.1299 42.2583 64.1632 41.9667 64.2299 41.7C64.2965 41.4333 64.4632 41.2167 64.7299 41.05C65.0132 40.8667 65.4632 40.775 66.0799 40.775C66.6799 40.775 67.0965 40.85 67.3299 41C67.5632 41.1333 67.7715 41.325 67.9549 41.575L75.2549 51.6V42.575C75.2549 42.2583 75.2882 41.9667 75.3549 41.7C75.4382 41.4333 75.6132 41.2167 75.8799 41.05C76.1466 40.8667 76.5799 40.775 77.1799 40.775C77.7966 40.775 78.2299 40.8667 78.4799 41.05C78.7466 41.2333 78.9049 41.475 78.9549 41.775C79.0216 42.0583 79.0549 42.3583 79.0549 42.675V56.325C79.0549 56.6417 79.0216 56.95 78.9549 57.25C78.8882 57.5333 78.7215 57.7667 78.4549 57.95C78.1882 58.1333 77.7465 58.225 77.1299 58.225C76.6632 58.225 76.2965 58.1833 76.0299 58.1C75.7799 58.0167 75.5632 57.8583 75.3799 57.625L67.9299 47.525V56.325C67.9299 56.6417 67.8965 56.95 67.8299 57.25C67.7632 57.5333 67.5965 57.7667 67.3299 57.95C67.0632 58.1333 66.6215 58.225 66.0049 58.225ZM89.3703 58.475C88.1703 58.475 87.037 58.25 85.9703 57.8C84.9203 57.3333 83.9953 56.7 83.1953 55.9C82.412 55.0833 81.787 54.1417 81.3203 53.075C80.8703 52.0083 80.6453 50.8583 80.6453 49.625C80.6453 48.375 80.862 47.2083 81.2953 46.125C81.7453 45.025 82.3536 44.0583 83.1203 43.225C83.9036 42.3917 84.812 41.7417 85.8453 41.275C86.8786 40.8083 87.987 40.575 89.1703 40.575C90.3703 40.575 91.4953 40.8083 92.5453 41.275C93.612 41.725 94.537 42.3583 95.3203 43.175C96.1036 43.9917 96.7203 44.9417 97.1703 46.025C97.637 47.1083 97.8703 48.2833 97.8703 49.55C97.8703 50.7667 97.6453 51.9167 97.1953 53C96.762 54.0667 96.1536 55.0167 95.3703 55.85C94.587 56.6667 93.6786 57.3083 92.6453 57.775C91.6286 58.2417 90.537 58.475 89.3703 58.475ZM89.2453 54.675C89.912 54.675 90.537 54.5417 91.1203 54.275C91.7036 54.0083 92.212 53.65 92.6453 53.2C93.0953 52.7333 93.437 52.1917 93.6703 51.575C93.9203 50.9417 94.0453 50.2583 94.0453 49.525C94.0453 48.825 93.9203 48.1667 93.6703 47.55C93.4203 46.9167 93.0703 46.3667 92.6203 45.9C92.187 45.4167 91.6786 45.0417 91.0953 44.775C90.5286 44.5083 89.912 44.375 89.2453 44.375C88.5953 44.375 87.9786 44.5083 87.3953 44.775C86.8286 45.0417 86.3203 45.4167 85.8703 45.9C85.437 46.3667 85.087 46.9167 84.8203 47.55C84.5703 48.1667 84.4453 48.8333 84.4453 49.55C84.4453 50.25 84.5703 50.9167 84.8203 51.55C85.087 52.1667 85.437 52.7083 85.8703 53.175C86.3203 53.6417 86.8286 54.0083 87.3953 54.275C87.962 54.5417 88.5786 54.675 89.2453 54.675ZM101.236 58.225C100.636 58.225 100.202 58.1333 99.9355 57.95C99.6855 57.7667 99.5272 57.5333 99.4605 57.25C99.3939 56.95 99.3605 56.6333 99.3605 56.3V42.625C99.3605 42.3083 99.3939 42.0167 99.4605 41.75C99.5272 41.4667 99.6939 41.2333 99.9605 41.05C100.227 40.8667 100.669 40.775 101.286 40.775C101.702 40.775 102.019 40.8 102.236 40.85C102.452 40.9 102.611 40.975 102.711 41.075C102.811 41.1583 102.919 41.2583 103.036 41.375L108.661 48.975H108.286L113.936 41.375C114.069 41.2083 114.202 41.0833 114.336 41C114.469 40.9167 114.636 40.8583 114.836 40.825C115.052 40.7917 115.352 40.775 115.736 40.775C116.336 40.775 116.769 40.8667 117.036 41.05C117.302 41.2333 117.469 41.475 117.536 41.775C117.602 42.0583 117.636 42.3583 117.636 42.675V56.35C117.636 56.6667 117.602 56.9667 117.536 57.25C117.469 57.5333 117.302 57.7667 117.036 57.95C116.769 58.1333 116.327 58.225 115.711 58.225C115.111 58.225 114.677 58.1333 114.411 57.95C114.144 57.7667 113.977 57.525 113.911 57.225C113.844 56.925 113.811 56.6167 113.811 56.3V47.375L110.086 52.65C110.019 52.7333 109.927 52.85 109.811 53C109.694 53.1333 109.527 53.25 109.311 53.35C109.111 53.45 108.836 53.5 108.486 53.5C108.119 53.5 107.827 53.45 107.611 53.35C107.411 53.25 107.252 53.1333 107.136 53C107.019 52.8667 106.919 52.75 106.836 52.65L103.136 47.4V56.35C103.136 56.6667 103.102 56.9667 103.036 57.25C102.969 57.5333 102.802 57.7667 102.536 57.95C102.286 58.1333 101.852 58.225 101.236 58.225ZM125.447 58.475C124.564 58.475 123.789 58.3667 123.122 58.15C122.472 57.9333 121.914 57.675 121.447 57.375C120.997 57.0583 120.639 56.75 120.372 56.45C120.105 56.15 119.922 55.925 119.822 55.775C119.539 55.4083 119.364 55.0917 119.297 54.825C119.23 54.5417 119.264 54.2583 119.397 53.975C119.547 53.6917 119.797 53.3833 120.147 53.05C120.497 52.75 120.822 52.5917 121.122 52.575C121.439 52.5417 121.747 52.6167 122.047 52.8C122.347 52.9833 122.639 53.2417 122.922 53.575C123.322 54.0583 123.714 54.4 124.097 54.6C124.497 54.7833 124.914 54.875 125.347 54.875C125.897 54.875 126.364 54.8083 126.747 54.675C127.13 54.5417 127.422 54.3333 127.622 54.05C127.822 53.75 127.922 53.375 127.922 52.925C127.922 52.5583 127.78 52.2667 127.497 52.05C127.23 51.8167 126.864 51.6167 126.397 51.45C125.947 51.2833 125.439 51.125 124.872 50.975C124.322 50.8083 123.772 50.6167 123.222 50.4C122.839 50.2667 122.472 50.1 122.122 49.9C121.772 49.7 121.439 49.475 121.122 49.225C120.805 48.975 120.53 48.675 120.297 48.325C120.08 47.975 119.905 47.575 119.772 47.125C119.655 46.675 119.597 46.1583 119.597 45.575C119.597 44.5917 119.839 43.7167 120.322 42.95C120.805 42.1833 121.472 41.5833 122.322 41.15C123.189 40.7 124.18 40.475 125.297 40.475C126.047 40.475 126.697 40.5417 127.247 40.675C127.814 40.8083 128.289 40.9667 128.672 41.15C129.055 41.3333 129.355 41.5167 129.572 41.7C129.805 41.8667 129.964 42 130.047 42.1C130.514 42.5333 130.772 42.9083 130.822 43.225C130.872 43.525 130.697 43.95 130.297 44.5C129.88 45.0833 129.464 45.4083 129.047 45.475C128.647 45.5417 128.189 45.4 127.672 45.05C127.472 44.8667 127.272 44.7 127.072 44.55C126.872 44.4 126.63 44.2833 126.347 44.2C126.08 44.1 125.722 44.05 125.272 44.05C125.005 44.05 124.755 44.0917 124.522 44.175C124.289 44.2417 124.089 44.3417 123.922 44.475C123.755 44.6083 123.622 44.775 123.522 44.975C123.422 45.1583 123.372 45.3667 123.372 45.6C123.372 45.9833 123.497 46.2917 123.747 46.525C124.014 46.7583 124.355 46.95 124.772 47.1C125.205 47.2333 125.68 47.3667 126.197 47.5C126.73 47.6167 127.272 47.7583 127.822 47.925C128.322 48.0917 128.805 48.3 129.272 48.55C129.739 48.7833 130.155 49.0833 130.522 49.45C130.889 49.8167 131.18 50.275 131.397 50.825C131.63 51.375 131.747 52.05 131.747 52.85C131.747 53.85 131.555 54.7083 131.172 55.425C130.789 56.1417 130.28 56.725 129.647 57.175C129.014 57.625 128.33 57.95 127.597 58.15C126.864 58.3667 126.147 58.475 125.447 58.475ZM135.194 58.225C134.611 58.225 134.186 58.1333 133.919 57.95C133.653 57.7667 133.486 57.5333 133.419 57.25C133.353 56.95 133.319 56.6333 133.319 56.3V42.575C133.319 42.2583 133.353 41.9667 133.419 41.7C133.486 41.4333 133.653 41.2167 133.919 41.05C134.203 40.8667 134.653 40.775 135.269 40.775C135.869 40.775 136.286 40.85 136.519 41C136.753 41.1333 136.961 41.325 137.144 41.575L144.444 51.6V42.575C144.444 42.2583 144.478 41.9667 144.544 41.7C144.628 41.4333 144.803 41.2167 145.069 41.05C145.336 40.8667 145.769 40.775 146.369 40.775C146.986 40.775 147.419 40.8667 147.669 41.05C147.936 41.2333 148.094 41.475 148.144 41.775C148.211 42.0583 148.244 42.3583 148.244 42.675V56.325C148.244 56.6417 148.211 56.95 148.144 57.25C148.078 57.5333 147.911 57.7667 147.644 57.95C147.378 58.1333 146.936 58.225 146.319 58.225C145.853 58.225 145.486 58.1833 145.219 58.1C144.969 58.0167 144.753 57.8583 144.569 57.625L137.119 47.525V56.325C137.119 56.6417 137.086 56.95 137.019 57.25C136.953 57.5333 136.786 57.7667 136.519 57.95C136.253 58.1333 135.811 58.225 135.194 58.225ZM152.26 58.225C151.66 58.225 151.226 58.1417 150.96 57.975C150.693 57.7917 150.526 57.55 150.46 57.25C150.41 56.95 150.385 56.6417 150.385 56.325V42.65C150.385 42.3167 150.41 42.0083 150.46 41.725C150.526 41.4417 150.693 41.2083 150.96 41.025C151.226 40.8417 151.668 40.75 152.285 40.75C152.918 40.75 153.36 40.8417 153.61 41.025C153.876 41.2083 154.035 41.4417 154.085 41.725C154.151 42.0083 154.185 42.325 154.185 42.675V56.35C154.185 56.6667 154.151 56.975 154.085 57.275C154.018 57.5583 153.851 57.7917 153.585 57.975C153.335 58.1417 152.893 58.225 152.26 58.225ZM169.245 40.725C169.529 40.725 169.787 40.75 170.02 40.8C170.254 40.85 170.445 40.9917 170.595 41.225C170.762 41.4417 170.845 41.825 170.845 42.375C170.845 42.8917 170.762 43.2667 170.595 43.5C170.445 43.7333 170.245 43.875 169.995 43.925C169.745 43.975 169.479 44 169.195 44H165.17V56.375C165.17 56.6917 165.137 56.9917 165.07 57.275C165.02 57.5583 164.862 57.7917 164.595 57.975C164.345 58.1417 163.912 58.225 163.295 58.225C162.695 58.225 162.262 58.1417 161.995 57.975C161.729 57.7917 161.57 57.5583 161.52 57.275C161.47 56.975 161.445 56.6667 161.445 56.35V44H157.37C157.104 44 156.845 43.975 156.595 43.925C156.345 43.8583 156.145 43.7167 155.995 43.5C155.845 43.2667 155.77 42.8833 155.77 42.35C155.77 41.8167 155.845 41.4417 155.995 41.225C156.145 40.9917 156.345 40.85 156.595 40.8C156.845 40.75 157.104 40.725 157.37 40.725H169.245ZM185.456 40.725C185.74 40.725 185.998 40.75 186.231 40.8C186.465 40.85 186.656 40.9917 186.806 41.225C186.973 41.4417 187.056 41.825 187.056 42.375C187.056 42.8917 186.973 43.2667 186.806 43.5C186.656 43.7333 186.456 43.875 186.206 43.925C185.956 43.975 185.69 44 185.406 44H181.381V56.375C181.381 56.6917 181.348 56.9917 181.281 57.275C181.231 57.5583 181.073 57.7917 180.806 57.975C180.556 58.1417 180.123 58.225 179.506 58.225C178.906 58.225 178.473 58.1417 178.206 57.975C177.94 57.7917 177.781 57.5583 177.731 57.275C177.681 56.975 177.656 56.6667 177.656 56.35V44H173.581C173.315 44 173.056 43.975 172.806 43.925C172.556 43.8583 172.356 43.7167 172.206 43.5C172.056 43.2667 171.981 42.8833 171.981 42.35C171.981 41.8167 172.056 41.4417 172.206 41.225C172.356 40.9917 172.556 40.85 172.806 40.8C173.056 40.75 173.315 40.725 173.581 40.725H185.456ZM190.492 58.225C189.892 58.225 189.459 58.1417 189.192 57.975C188.926 57.7917 188.759 57.55 188.692 57.25C188.642 56.95 188.617 56.6417 188.617 56.325V42.65C188.617 42.3167 188.642 42.0083 188.692 41.725C188.759 41.4417 188.926 41.2083 189.192 41.025C189.459 40.8417 189.901 40.75 190.517 40.75C191.151 40.75 191.592 40.8417 191.842 41.025C192.109 41.2083 192.267 41.4417 192.317 41.725C192.384 42.0083 192.417 42.325 192.417 42.675V56.35C192.417 56.6667 192.384 56.975 192.317 57.275C192.251 57.5583 192.084 57.7917 191.817 57.975C191.567 58.1417 191.126 58.225 190.492 58.225ZM196.303 58.225C195.719 58.225 195.294 58.1333 195.028 57.95C194.761 57.7667 194.594 57.5333 194.528 57.25C194.461 56.95 194.428 56.6333 194.428 56.3V42.575C194.428 42.2583 194.461 41.9667 194.528 41.7C194.594 41.4333 194.761 41.2167 195.028 41.05C195.311 40.8667 195.761 40.775 196.378 40.775C196.978 40.775 197.394 40.85 197.628 41C197.861 41.1333 198.069 41.325 198.253 41.575L205.553 51.6V42.575C205.553 42.2583 205.586 41.9667 205.653 41.7C205.736 41.4333 205.911 41.2167 206.178 41.05C206.444 40.8667 206.878 40.775 207.478 40.775C208.094 40.775 208.528 40.8667 208.778 41.05C209.044 41.2333 209.203 41.475 209.253 41.775C209.319 42.0583 209.353 42.3583 209.353 42.675V56.325C209.353 56.6417 209.319 56.95 209.253 57.25C209.186 57.5333 209.019 57.7667 208.753 57.95C208.486 58.1333 208.044 58.225 207.428 58.225C206.961 58.225 206.594 58.1833 206.328 58.1C206.078 58.0167 205.861 57.8583 205.678 57.625L198.228 47.525V56.325C198.228 56.6417 198.194 56.95 198.128 57.25C198.061 57.5333 197.894 57.7667 197.628 57.95C197.361 58.1333 196.919 58.225 196.303 58.225ZM220.243 58.425C219.01 58.425 217.868 58.1917 216.818 57.725C215.768 57.2583 214.843 56.6083 214.043 55.775C213.26 54.9417 212.643 53.9667 212.193 52.85C211.76 51.7333 211.543 50.525 211.543 49.225C211.543 47.9917 211.768 46.85 212.218 45.8C212.668 44.7333 213.293 43.8083 214.093 43.025C214.893 42.225 215.835 41.6083 216.918 41.175C218.001 40.725 219.176 40.4917 220.443 40.475C220.96 40.475 221.51 40.525 222.093 40.625C222.693 40.725 223.276 40.875 223.843 41.075C224.41 41.275 224.901 41.5167 225.318 41.8C225.651 42.0167 225.943 42.25 226.193 42.5C226.46 42.7333 226.593 43.0167 226.593 43.35C226.61 43.5167 226.576 43.7083 226.493 43.925C226.41 44.125 226.293 44.3333 226.143 44.55C225.876 44.9333 225.61 45.2083 225.343 45.375C225.093 45.5417 224.843 45.625 224.593 45.625C224.46 45.625 224.301 45.5833 224.118 45.5C223.935 45.4167 223.685 45.275 223.368 45.075C223.218 44.975 222.985 44.8667 222.668 44.75C222.351 44.6333 221.985 44.5333 221.568 44.45C221.168 44.35 220.751 44.3 220.318 44.3C219.368 44.3 218.518 44.5167 217.768 44.95C217.018 45.3667 216.426 45.95 215.993 46.7C215.576 47.45 215.36 48.3167 215.343 49.3C215.36 50.3 215.585 51.2 216.018 52C216.451 52.7833 217.043 53.4083 217.793 53.875C218.56 54.3417 219.41 54.575 220.343 54.575C220.676 54.575 221.01 54.5583 221.343 54.525C221.693 54.4917 222.026 54.4417 222.343 54.375C222.676 54.2917 222.976 54.1917 223.243 54.075V51.025H220.568C220.285 51.025 220.026 51 219.793 50.95C219.576 50.9 219.393 50.7583 219.243 50.525C219.11 50.2917 219.043 49.9083 219.043 49.375C219.043 48.8417 219.118 48.4667 219.268 48.25C219.418 48.0167 219.61 47.875 219.843 47.825C220.093 47.775 220.351 47.75 220.618 47.75H225.343C225.893 47.7667 226.285 47.8667 226.518 48.05C226.751 48.2333 226.901 48.4667 226.968 48.75C227.035 49.0167 227.068 49.3083 227.068 49.625V55.075C227.068 55.475 226.885 55.8917 226.518 56.325C226.151 56.7417 225.651 57.1083 225.018 57.425C224.618 57.6417 224.16 57.825 223.643 57.975C223.143 58.1083 222.61 58.2167 222.043 58.3C221.476 58.3833 220.876 58.425 220.243 58.425ZM33.125 88.225C32.525 88.225 32.0917 88.1417 31.825 87.975C31.5583 87.7917 31.3917 87.55 31.325 87.25C31.275 86.95 31.25 86.6417 31.25 86.325V72.625C31.25 72.3083 31.275 72.0083 31.325 71.725C31.3917 71.425 31.5583 71.1917 31.825 71.025C32.0917 70.8417 32.5333 70.75 33.15 70.75C33.7833 70.75 34.225 70.8417 34.475 71.025C34.7417 71.2083 34.9 71.4417 34.95 71.725C35.0167 72.0083 35.05 72.3167 35.05 72.65V76.975L40.4 71.375C40.7333 71.0417 41.0333 70.8083 41.3 70.675C41.5833 70.5417 41.8667 70.5167 42.15 70.6C42.45 70.6833 42.7667 70.8917 43.1 71.225C43.6667 71.7417 43.95 72.2 43.95 72.6C43.9667 72.9833 43.7333 73.4167 43.25 73.9L37.5 79.5L43.3 85.05C43.8167 85.5667 44.0583 86.0333 44.025 86.45C44.0083 86.85 43.7167 87.2833 43.15 87.75C42.75 88.0833 42.4 88.2917 42.1 88.375C41.8167 88.475 41.55 88.45 41.3 88.3C41.05 88.1667 40.7667 87.925 40.45 87.575L35.05 81.95V86.35C35.05 86.6667 35.0167 86.975 34.95 87.275C34.9 87.5583 34.7417 87.7917 34.475 87.975C34.2083 88.1417 33.7583 88.225 33.125 88.225ZM53.174 88.45C51.9574 88.45 50.8824 88.2167 49.949 87.75C49.0324 87.2667 48.249 86.6333 47.599 85.85C46.9657 85.05 46.4907 84.1583 46.174 83.175C45.8574 82.175 45.699 81.1583 45.699 80.125V72.65C45.699 72.3167 45.724 72.0083 45.774 71.725C45.8407 71.425 46.0074 71.1833 46.274 71C46.5407 70.8167 46.9824 70.725 47.599 70.725C48.2324 70.725 48.6824 70.8167 48.949 71C49.2157 71.1833 49.374 71.425 49.424 71.725C49.4907 72.0083 49.524 72.325 49.524 72.675V80.125C49.524 80.8583 49.6407 81.5667 49.874 82.25C50.124 82.9333 50.524 83.5 51.074 83.95C51.624 84.4 52.349 84.625 53.249 84.625C54.0157 84.625 54.674 84.4417 55.224 84.075C55.774 83.6917 56.199 83.1667 56.499 82.5C56.799 81.8167 56.949 81.0167 56.949 80.1V72.5C56.949 72.2 56.9824 71.9167 57.049 71.65C57.1157 71.3833 57.2824 71.1667 57.549 71C57.8157 70.8167 58.2574 70.725 58.874 70.725C59.4907 70.725 59.924 70.825 60.174 71.025C60.4407 71.2083 60.599 71.4417 60.649 71.725C60.7157 72.0083 60.749 72.325 60.749 72.675V80.175C60.749 81.225 60.5824 82.2417 60.249 83.225C59.9324 84.2083 59.449 85.0917 58.799 85.875C58.1657 86.6583 57.374 87.2833 56.424 87.75C55.4907 88.2167 54.4074 88.45 53.174 88.45ZM64.7109 88.225C64.1276 88.225 63.7026 88.1333 63.4359 87.95C63.1693 87.7667 63.0026 87.5333 62.9359 87.25C62.8693 86.95 62.8359 86.6333 62.8359 86.3V72.575C62.8359 72.2583 62.8693 71.9667 62.9359 71.7C63.0026 71.4333 63.1693 71.2167 63.4359 71.05C63.7193 70.8667 64.1693 70.775 64.7859 70.775C65.3859 70.775 65.8026 70.85 66.0359 71C66.2693 71.1333 66.4776 71.325 66.6609 71.575L73.9609 81.6V72.575C73.9609 72.2583 73.9943 71.9667 74.0609 71.7C74.1443 71.4333 74.3193 71.2167 74.5859 71.05C74.8526 70.8667 75.2859 70.775 75.8859 70.775C76.5026 70.775 76.9359 70.8667 77.1859 71.05C77.4526 71.2333 77.6109 71.475 77.6609 71.775C77.7276 72.0583 77.7609 72.3583 77.7609 72.675V86.325C77.7609 86.6417 77.7276 86.95 77.6609 87.25C77.5943 87.5333 77.4276 87.7667 77.1609 87.95C76.8943 88.1333 76.4526 88.225 75.8359 88.225C75.3693 88.225 75.0026 88.1833 74.7359 88.1C74.4859 88.0167 74.2693 87.8583 74.0859 87.625L66.6359 77.525V86.325C66.6359 86.6417 66.6026 86.95 66.5359 87.25C66.4693 87.5333 66.3026 87.7667 66.0359 87.95C65.7693 88.1333 65.3276 88.225 64.7109 88.225ZM81.8014 88.225C81.218 88.225 80.793 88.1333 80.5264 87.95C80.2764 87.7667 80.1097 87.5333 80.0264 87.25C79.943 86.95 79.9014 86.6333 79.9014 86.3V72.625C79.9014 72.3083 79.9347 72.0083 80.0014 71.725C80.068 71.425 80.2347 71.1833 80.5014 71C80.768 70.8167 81.2097 70.7333 81.8264 70.75H86.3264C87.5264 70.75 88.643 70.9667 89.6764 71.4C90.7097 71.8333 91.618 72.4417 92.4014 73.225C93.1847 74.0083 93.793 74.925 94.2264 75.975C94.6597 77.025 94.8764 78.1667 94.8764 79.4C94.8764 80.65 94.6597 81.8167 94.2264 82.9C93.793 83.9667 93.1847 84.9 92.4014 85.7C91.618 86.4833 90.7014 87.1 89.6514 87.55C88.618 88 87.4847 88.225 86.2514 88.225H81.8014ZM83.7014 84.4H86.3264C87.2264 84.4 88.0347 84.1917 88.7514 83.775C89.468 83.3417 90.0347 82.7583 90.4514 82.025C90.868 81.2917 91.0764 80.45 91.0764 79.5C91.0764 78.55 90.868 77.7 90.4514 76.95C90.0347 76.2 89.468 75.6167 88.7514 75.2C88.0347 74.7667 87.218 74.55 86.3014 74.55H83.7014V84.4ZM98.7262 88.225C98.1262 88.225 97.6928 88.1417 97.4262 87.975C97.1595 87.7917 96.9928 87.55 96.9262 87.25C96.8762 86.95 96.8512 86.6417 96.8512 86.325V72.65C96.8512 71.9167 96.9928 71.4167 97.2762 71.15C97.5595 70.8833 98.0678 70.75 98.8012 70.75H108.251C108.585 70.75 108.893 70.7833 109.176 70.85C109.46 70.9 109.685 71.0583 109.851 71.325C110.035 71.5917 110.126 72.0417 110.126 72.675C110.126 73.275 110.035 73.7083 109.851 73.975C109.668 74.2417 109.426 74.4083 109.126 74.475C108.843 74.525 108.535 74.55 108.201 74.55H100.651V77.775H105.776C106.11 77.775 106.401 77.8 106.651 77.85C106.918 77.9 107.126 78.0417 107.276 78.275C107.426 78.5083 107.501 78.9 107.501 79.45C107.501 79.9833 107.426 80.3667 107.276 80.6C107.126 80.8167 106.918 80.95 106.651 81C106.401 81.05 106.101 81.075 105.751 81.075H100.651V86.35C100.651 86.6667 100.618 86.975 100.551 87.275C100.485 87.5583 100.318 87.7917 100.051 87.975C99.8012 88.1417 99.3595 88.225 98.7262 88.225ZM114.33 88.225C113.73 88.225 113.296 88.1417 113.03 87.975C112.763 87.7917 112.596 87.55 112.53 87.25C112.463 86.95 112.43 86.6417 112.43 86.325V72.65C112.43 72.3167 112.455 72.0083 112.505 71.725C112.571 71.4417 112.738 71.2083 113.005 71.025C113.271 70.8417 113.713 70.75 114.33 70.75C114.963 70.75 115.405 70.8417 115.655 71.025C115.921 71.2083 116.08 71.4417 116.13 71.725C116.196 72.0083 116.23 72.3167 116.23 72.65V84.925H123.08C123.363 84.925 123.63 84.95 123.88 85C124.13 85.05 124.33 85.1917 124.48 85.425C124.646 85.6583 124.73 86.0417 124.73 86.575C124.73 87.0917 124.646 87.475 124.48 87.725C124.313 87.9583 124.105 88.1 123.855 88.15C123.621 88.2 123.363 88.225 123.08 88.225H114.33ZM134.365 88.475C133.165 88.475 132.032 88.25 130.965 87.8C129.915 87.3333 128.99 86.7 128.19 85.9C127.407 85.0833 126.782 84.1417 126.315 83.075C125.865 82.0083 125.64 80.8583 125.64 79.625C125.64 78.375 125.857 77.2083 126.29 76.125C126.74 75.025 127.349 74.0583 128.115 73.225C128.899 72.3917 129.807 71.7417 130.84 71.275C131.874 70.8083 132.982 70.575 134.165 70.575C135.365 70.575 136.49 70.8083 137.54 71.275C138.607 71.725 139.532 72.3583 140.315 73.175C141.099 73.9917 141.715 74.9417 142.165 76.025C142.632 77.1083 142.865 78.2833 142.865 79.55C142.865 80.7667 142.64 81.9167 142.19 83C141.757 84.0667 141.149 85.0167 140.365 85.85C139.582 86.6667 138.674 87.3083 137.64 87.775C136.624 88.2417 135.532 88.475 134.365 88.475ZM134.24 84.675C134.907 84.675 135.532 84.5417 136.115 84.275C136.699 84.0083 137.207 83.65 137.64 83.2C138.09 82.7333 138.432 82.1917 138.665 81.575C138.915 80.9417 139.04 80.2583 139.04 79.525C139.04 78.825 138.915 78.1667 138.665 77.55C138.415 76.9167 138.065 76.3667 137.615 75.9C137.182 75.4167 136.674 75.0417 136.09 74.775C135.524 74.5083 134.907 74.375 134.24 74.375C133.59 74.375 132.974 74.5083 132.39 74.775C131.824 75.0417 131.315 75.4167 130.865 75.9C130.432 76.3667 130.082 76.9167 129.815 77.55C129.565 78.1667 129.44 78.8333 129.44 79.55C129.44 80.25 129.565 80.9167 129.815 81.55C130.082 82.1667 130.432 82.7083 130.865 83.175C131.315 83.6417 131.824 84.0083 132.39 84.275C132.957 84.5417 133.574 84.675 134.24 84.675ZM146.206 88.225C145.622 88.225 145.197 88.1333 144.931 87.95C144.681 87.7667 144.514 87.5333 144.431 87.25C144.347 86.95 144.306 86.6333 144.306 86.3V72.625C144.306 72.3083 144.339 72.0083 144.406 71.725C144.472 71.425 144.639 71.1833 144.906 71C145.172 70.8167 145.614 70.7333 146.231 70.75H150.731C151.931 70.75 153.047 70.9667 154.081 71.4C155.114 71.8333 156.022 72.4417 156.806 73.225C157.589 74.0083 158.197 74.925 158.631 75.975C159.064 77.025 159.281 78.1667 159.281 79.4C159.281 80.65 159.064 81.8167 158.631 82.9C158.197 83.9667 157.589 84.9 156.806 85.7C156.022 86.4833 155.106 87.1 154.056 87.55C153.022 88 151.889 88.225 150.656 88.225H146.206ZM148.106 84.4H150.731C151.631 84.4 152.439 84.1917 153.156 83.775C153.872 83.3417 154.439 82.7583 154.856 82.025C155.272 81.2917 155.481 80.45 155.481 79.5C155.481 78.55 155.272 77.7 154.856 76.95C154.439 76.2 153.872 75.6167 153.156 75.2C152.439 74.7667 151.622 74.55 150.706 74.55H148.106V84.4ZM163.13 88.225C162.53 88.225 162.097 88.1417 161.83 87.975C161.564 87.7917 161.397 87.55 161.33 87.25C161.28 86.95 161.255 86.6417 161.255 86.325V72.65C161.255 71.9167 161.397 71.4167 161.68 71.15C161.964 70.8833 162.472 70.75 163.205 70.75H172.655C172.989 70.75 173.297 70.7833 173.58 70.85C173.864 70.9 174.097 71.0583 174.28 71.325C174.464 71.5917 174.555 72.0417 174.555 72.675C174.555 73.275 174.464 73.7083 174.28 73.975C174.097 74.2417 173.855 74.4083 173.555 74.475C173.272 74.525 172.964 74.55 172.63 74.55H165.055V77.775H170.205C170.539 77.775 170.83 77.8 171.08 77.85C171.347 77.9 171.555 78.0417 171.705 78.275C171.855 78.5083 171.93 78.9 171.93 79.45C171.93 79.9667 171.855 80.3417 171.705 80.575C171.555 80.8083 171.347 80.95 171.08 81C170.814 81.05 170.505 81.075 170.155 81.075H165.055V84.425H172.655C172.989 84.425 173.297 84.4583 173.58 84.525C173.864 84.5917 174.097 84.7583 174.28 85.025C174.464 85.275 174.555 85.7167 174.555 86.35C174.555 86.95 174.464 87.3833 174.28 87.65C174.097 87.9167 173.855 88.075 173.555 88.125C173.272 88.1917 172.964 88.225 172.63 88.225H163.13ZM182.014 88.475C181.131 88.475 180.356 88.3667 179.689 88.15C179.039 87.9333 178.481 87.675 178.014 87.375C177.564 87.0583 177.206 86.75 176.939 86.45C176.673 86.15 176.489 85.925 176.389 85.775C176.106 85.4083 175.931 85.0917 175.864 84.825C175.798 84.5417 175.831 84.2583 175.964 83.975C176.114 83.6917 176.364 83.3833 176.714 83.05C177.064 82.75 177.389 82.5917 177.689 82.575C178.006 82.5417 178.314 82.6167 178.614 82.8C178.914 82.9833 179.206 83.2417 179.489 83.575C179.889 84.0583 180.281 84.4 180.664 84.6C181.064 84.7833 181.481 84.875 181.914 84.875C182.464 84.875 182.931 84.8083 183.314 84.675C183.698 84.5417 183.989 84.3333 184.189 84.05C184.389 83.75 184.489 83.375 184.489 82.925C184.489 82.5583 184.348 82.2667 184.064 82.05C183.798 81.8167 183.431 81.6167 182.964 81.45C182.514 81.2833 182.006 81.125 181.439 80.975C180.889 80.8083 180.339 80.6167 179.789 80.4C179.406 80.2667 179.039 80.1 178.689 79.9C178.339 79.7 178.006 79.475 177.689 79.225C177.373 78.975 177.098 78.675 176.864 78.325C176.648 77.975 176.473 77.575 176.339 77.125C176.223 76.675 176.164 76.1583 176.164 75.575C176.164 74.5917 176.406 73.7167 176.889 72.95C177.373 72.1833 178.039 71.5833 178.889 71.15C179.756 70.7 180.748 70.475 181.864 70.475C182.614 70.475 183.264 70.5417 183.814 70.675C184.381 70.8083 184.856 70.9667 185.239 71.15C185.623 71.3333 185.923 71.5167 186.139 71.7C186.373 71.8667 186.531 72 186.614 72.1C187.081 72.5333 187.339 72.9083 187.389 73.225C187.439 73.525 187.264 73.95 186.864 74.5C186.448 75.0833 186.031 75.4083 185.614 75.475C185.214 75.5417 184.756 75.4 184.239 75.05C184.039 74.8667 183.839 74.7 183.639 74.55C183.439 74.4 183.198 74.2833 182.914 74.2C182.648 74.1 182.289 74.05 181.839 74.05C181.573 74.05 181.323 74.0917 181.089 74.175C180.856 74.2417 180.656 74.3417 180.489 74.475C180.323 74.6083 180.189 74.775 180.089 74.975C179.989 75.1583 179.939 75.3667 179.939 75.6C179.939 75.9833 180.064 76.2917 180.314 76.525C180.581 76.7583 180.923 76.95 181.339 77.1C181.773 77.2333 182.248 77.3667 182.764 77.5C183.298 77.6167 183.839 77.7583 184.389 77.925C184.889 78.0917 185.373 78.3 185.839 78.55C186.306 78.7833 186.723 79.0833 187.089 79.45C187.456 79.8167 187.748 80.275 187.964 80.825C188.198 81.375 188.314 82.05 188.314 82.85C188.314 83.85 188.123 84.7083 187.739 85.425C187.356 86.1417 186.848 86.725 186.214 87.175C185.581 87.625 184.898 87.95 184.164 88.15C183.431 88.3667 182.714 88.475 182.014 88.475ZM198.062 88.475C196.862 88.475 195.728 88.25 194.662 87.8C193.612 87.3333 192.687 86.7 191.887 85.9C191.103 85.0833 190.478 84.1417 190.012 83.075C189.562 82.0083 189.337 80.8583 189.337 79.625C189.337 78.375 189.553 77.2083 189.987 76.125C190.437 75.025 191.045 74.0583 191.812 73.225C192.595 72.3917 193.503 71.7417 194.537 71.275C195.57 70.8083 196.678 70.575 197.862 70.575C199.062 70.575 200.187 70.8083 201.237 71.275C202.303 71.725 203.228 72.3583 204.012 73.175C204.795 73.9917 205.412 74.9417 205.862 76.025C206.328 77.1083 206.562 78.2833 206.562 79.55C206.562 80.7667 206.337 81.9167 205.887 83C205.453 84.0667 204.845 85.0167 204.062 85.85C203.278 86.6667 202.37 87.3083 201.337 87.775C200.32 88.2417 199.228 88.475 198.062 88.475ZM197.937 84.675C198.603 84.675 199.228 84.5417 199.812 84.275C200.395 84.0083 200.903 83.65 201.337 83.2C201.787 82.7333 202.128 82.1917 202.362 81.575C202.612 80.9417 202.737 80.2583 202.737 79.525C202.737 78.825 202.612 78.1667 202.362 77.55C202.112 76.9167 201.762 76.3667 201.312 75.9C200.878 75.4167 200.37 75.0417 199.787 74.775C199.22 74.5083 198.603 74.375 197.937 74.375C197.287 74.375 196.67 74.5083 196.087 74.775C195.52 75.0417 195.012 75.4167 194.562 75.9C194.128 76.3667 193.778 76.9167 193.512 77.55C193.262 78.1667 193.137 78.8333 193.137 79.55C193.137 80.25 193.262 80.9167 193.512 81.55C193.778 82.1667 194.128 82.7083 194.562 83.175C195.012 83.6417 195.52 84.0083 196.087 84.275C196.653 84.5417 197.27 84.675 197.937 84.675ZM210.127 88.225C209.527 88.225 209.094 88.1417 208.827 87.975C208.56 87.7917 208.394 87.55 208.327 87.25C208.277 86.95 208.252 86.6417 208.252 86.325V72.625C208.252 72.3083 208.277 72.0083 208.327 71.725C208.394 71.425 208.56 71.1917 208.827 71.025C209.094 70.8417 209.535 70.75 210.152 70.75C210.785 70.75 211.227 70.8417 211.477 71.025C211.744 71.2083 211.902 71.4417 211.952 71.725C212.019 72.0083 212.052 72.3167 212.052 72.65V76.975L217.402 71.375C217.735 71.0417 218.035 70.8083 218.302 70.675C218.585 70.5417 218.869 70.5167 219.152 70.6C219.452 70.6833 219.769 70.8917 220.102 71.225C220.669 71.7417 220.952 72.2 220.952 72.6C220.969 72.9833 220.735 73.4167 220.252 73.9L214.502 79.5L220.302 85.05C220.819 85.5667 221.06 86.0333 221.027 86.45C221.01 86.85 220.719 87.2833 220.152 87.75C219.752 88.0833 219.402 88.2917 219.102 88.375C218.819 88.475 218.552 88.45 218.302 88.3C218.052 88.1667 217.769 87.925 217.452 87.575L212.052 81.95V86.35C212.052 86.6667 212.019 86.975 211.952 87.275C211.902 87.5583 211.744 87.7917 211.477 87.975C211.21 88.1417 210.76 88.225 210.127 88.225ZM224.745 88.225C224.162 88.225 223.737 88.1333 223.47 87.95C223.203 87.7667 223.037 87.5333 222.97 87.25C222.903 86.95 222.87 86.6333 222.87 86.3V72.575C222.87 72.2583 222.903 71.9667 222.97 71.7C223.037 71.4333 223.203 71.2167 223.47 71.05C223.753 70.8667 224.203 70.775 224.82 70.775C225.42 70.775 225.837 70.85 226.07 71C226.303 71.1333 226.512 71.325 226.695 71.575L233.995 81.6V72.575C233.995 72.2583 234.028 71.9667 234.095 71.7C234.178 71.4333 234.353 71.2167 234.62 71.05C234.887 70.8667 235.32 70.775 235.92 70.775C236.537 70.775 236.97 70.8667 237.22 71.05C237.487 71.2333 237.645 71.475 237.695 71.775C237.762 72.0583 237.795 72.3583 237.795 72.675V86.325C237.795 86.6417 237.762 86.95 237.695 87.25C237.628 87.5333 237.462 87.7667 237.195 87.95C236.928 88.1333 236.487 88.225 235.87 88.225C235.403 88.225 235.037 88.1833 234.77 88.1C234.52 88.0167 234.303 87.8583 234.12 87.625L226.67 77.525V86.325C226.67 86.6417 226.637 86.95 226.57 87.25C226.503 87.5333 226.337 87.7667 226.07 87.95C225.803 88.1333 225.362 88.225 224.745 88.225ZM241.811 88.225C241.211 88.225 240.777 88.1417 240.511 87.975C240.244 87.7917 240.077 87.55 240.011 87.25C239.961 86.95 239.936 86.6417 239.936 86.325V72.65C239.936 72.3167 239.961 72.0083 240.011 71.725C240.077 71.4417 240.244 71.2083 240.511 71.025C240.777 70.8417 241.219 70.75 241.836 70.75C242.469 70.75 242.911 70.8417 243.161 71.025C243.427 71.2083 243.586 71.4417 243.636 71.725C243.702 72.0083 243.736 72.325 243.736 72.675V86.35C243.736 86.6667 243.702 86.975 243.636 87.275C243.569 87.5583 243.402 87.7917 243.136 87.975C242.886 88.1417 242.444 88.225 241.811 88.225ZM247.621 88.225C247.038 88.225 246.613 88.1333 246.346 87.95C246.079 87.7667 245.913 87.5333 245.846 87.25C245.779 86.95 245.746 86.6333 245.746 86.3V72.575C245.746 72.2583 245.779 71.9667 245.846 71.7C245.913 71.4333 246.079 71.2167 246.346 71.05C246.629 70.8667 247.079 70.775 247.696 70.775C248.296 70.775 248.713 70.85 248.946 71C249.179 71.1333 249.388 71.325 249.571 71.575L256.871 81.6V72.575C256.871 72.2583 256.904 71.9667 256.971 71.7C257.054 71.4333 257.229 71.2167 257.496 71.05C257.763 70.8667 258.196 70.775 258.796 70.775C259.413 70.775 259.846 70.8667 260.096 71.05C260.363 71.2333 260.521 71.475 260.571 71.775C260.638 72.0583 260.671 72.3583 260.671 72.675V86.325C260.671 86.6417 260.638 86.95 260.571 87.25C260.504 87.5333 260.338 87.7667 260.071 87.95C259.804 88.1333 259.363 88.225 258.746 88.225C258.279 88.225 257.913 88.1833 257.646 88.1C257.396 88.0167 257.179 87.8583 256.996 87.625L249.546 77.525V86.325C249.546 86.6417 249.513 86.95 249.446 87.25C249.379 87.5333 249.213 87.7667 248.946 87.95C248.679 88.1333 248.238 88.225 247.621 88.225ZM271.562 88.425C270.328 88.425 269.187 88.1917 268.137 87.725C267.087 87.2583 266.162 86.6083 265.362 85.775C264.578 84.9417 263.962 83.9667 263.512 82.85C263.078 81.7333 262.862 80.525 262.862 79.225C262.862 77.9917 263.087 76.85 263.537 75.8C263.987 74.7333 264.612 73.8083 265.412 73.025C266.212 72.225 267.153 71.6083 268.237 71.175C269.32 70.725 270.495 70.4917 271.762 70.475C272.278 70.475 272.828 70.525 273.412 70.625C274.012 70.725 274.595 70.875 275.162 71.075C275.728 71.275 276.22 71.5167 276.637 71.8C276.97 72.0167 277.262 72.25 277.512 72.5C277.778 72.7333 277.912 73.0167 277.912 73.35C277.928 73.5167 277.895 73.7083 277.812 73.925C277.728 74.125 277.612 74.3333 277.462 74.55C277.195 74.9333 276.928 75.2083 276.662 75.375C276.412 75.5417 276.162 75.625 275.912 75.625C275.778 75.625 275.62 75.5833 275.437 75.5C275.253 75.4167 275.003 75.275 274.687 75.075C274.537 74.975 274.303 74.8667 273.987 74.75C273.67 74.6333 273.303 74.5333 272.887 74.45C272.487 74.35 272.07 74.3 271.637 74.3C270.687 74.3 269.837 74.5167 269.087 74.95C268.337 75.3667 267.745 75.95 267.312 76.7C266.895 77.45 266.678 78.3167 266.662 79.3C266.678 80.3 266.903 81.2 267.337 82C267.77 82.7833 268.362 83.4083 269.112 83.875C269.878 84.3417 270.728 84.575 271.662 84.575C271.995 84.575 272.328 84.5583 272.662 84.525C273.012 84.4917 273.345 84.4417 273.662 84.375C273.995 84.2917 274.295 84.1917 274.562 84.075V81.025H271.887C271.603 81.025 271.345 81 271.112 80.95C270.895 80.9 270.712 80.7583 270.562 80.525C270.428 80.2917 270.362 79.9083 270.362 79.375C270.362 78.8417 270.437 78.4667 270.587 78.25C270.737 78.0167 270.928 77.875 271.162 77.825C271.412 77.775 271.67 77.75 271.937 77.75H276.662C277.212 77.7667 277.603 77.8667 277.837 78.05C278.07 78.2333 278.22 78.4667 278.287 78.75C278.353 79.0167 278.387 79.3083 278.387 79.625V85.075C278.387 85.475 278.203 85.8917 277.837 86.325C277.47 86.7417 276.97 87.1083 276.337 87.425C275.937 87.6417 275.478 87.825 274.962 87.975C274.462 88.1083 273.928 88.2167 273.362 88.3C272.795 88.3833 272.195 88.425 271.562 88.425Z" fill="url(#paint1_linear_15_31)"/>
<path d="M43.5837 139.071C42.545 139.071 41.8103 138.919 41.3797 138.615C40.949 138.286 40.683 137.88 40.5817 137.399C40.5057 136.918 40.4677 136.424 40.4677 135.917V124.631C40.4677 124.124 40.5057 123.643 40.5817 123.187C40.683 122.706 40.949 122.313 41.3797 122.009C41.8357 121.705 42.583 121.553 43.6217 121.553C44.6603 121.553 45.395 121.705 45.8257 122.009C46.2563 122.313 46.5097 122.706 46.5857 123.187C46.687 123.668 46.7377 124.162 46.7377 124.669V135.955C46.7377 136.462 46.687 136.956 46.5857 137.437C46.5097 137.918 46.2563 138.311 45.8257 138.615C45.395 138.919 44.6477 139.071 43.5837 139.071ZM37.7317 133.447C37.2757 133.447 36.8197 133.409 36.3637 133.333C35.9077 133.232 35.5277 132.966 35.2237 132.535C34.945 132.079 34.8057 131.332 34.8057 130.293C34.8057 129.229 34.9577 128.482 35.2617 128.051C35.591 127.62 35.9963 127.367 36.4777 127.291C36.9843 127.19 37.491 127.139 37.9977 127.139H49.2457C49.7523 127.139 50.2463 127.19 50.7277 127.291C51.209 127.367 51.6017 127.633 51.9057 128.089C52.2097 128.52 52.3617 129.267 52.3617 130.331C52.3617 131.37 52.2097 132.104 51.9057 132.535C51.627 132.966 51.2597 133.232 50.8037 133.333C50.373 133.409 49.917 133.447 49.4357 133.447H37.7317ZM63.0486 140.781C61.0473 140.781 59.3246 140.35 57.8806 139.489C56.4619 138.602 55.3599 137.348 54.5746 135.727C53.8146 134.08 53.4346 132.13 53.4346 129.875C53.4346 127.95 53.6626 126.164 54.1186 124.517C54.5746 122.87 55.2206 121.388 56.0566 120.071C56.9179 118.728 57.9439 117.588 59.1346 116.651C60.3506 115.714 61.7059 114.992 63.2006 114.485C64.7206 113.978 66.3546 113.725 68.1026 113.725C68.6599 113.725 69.1919 113.776 69.6986 113.877C70.2053 113.978 70.6233 114.27 70.9526 114.751C71.2819 115.232 71.4466 116.056 71.4466 117.221C71.4466 118.361 71.2693 119.172 70.9146 119.653C70.5853 120.134 70.1546 120.426 69.6226 120.527C69.0906 120.628 68.5333 120.679 67.9506 120.679C66.8106 120.679 65.8353 120.831 65.0246 121.135C64.2393 121.439 63.5806 121.819 63.0486 122.275C62.5419 122.731 62.1366 123.187 61.8326 123.643C61.5286 124.099 61.3133 124.479 61.1866 124.783C61.0853 125.087 61.0346 125.239 61.0346 125.239L60.5786 124.821C60.5786 124.821 60.7053 124.77 60.9586 124.669C61.2373 124.542 61.5793 124.428 61.9846 124.327C62.4153 124.226 62.8586 124.175 63.3146 124.175C64.9106 124.175 66.3799 124.542 67.7226 125.277C69.0653 126.012 70.1419 126.974 70.9526 128.165C71.7633 129.356 72.1686 130.66 72.1686 132.079C72.1686 133.7 71.7633 135.17 70.9526 136.487C70.1419 137.804 69.0399 138.856 67.6466 139.641C66.2786 140.401 64.7459 140.781 63.0486 140.781ZM62.8966 134.283C63.4539 134.283 63.9099 134.22 64.2646 134.093C64.6193 133.941 64.8726 133.713 65.0246 133.409C65.2019 133.105 65.2906 132.725 65.2906 132.269C65.2906 131.889 65.2019 131.56 65.0246 131.281C64.8473 131.002 64.5939 130.787 64.2646 130.635C63.9353 130.483 63.5553 130.407 63.1246 130.407C62.6179 130.407 62.1619 130.483 61.7566 130.635C61.3766 130.787 61.0853 131.002 60.8826 131.281C60.6799 131.534 60.5786 131.838 60.5786 132.193C60.5786 132.674 60.6546 133.08 60.8066 133.409C60.9586 133.713 61.1993 133.941 61.5286 134.093C61.8833 134.22 62.3393 134.283 62.8966 134.283ZM83.587 140.819C81.8137 140.819 80.3063 140.515 79.065 139.907C77.849 139.274 76.861 138.45 76.101 137.437C75.341 136.424 74.7457 135.309 74.315 134.093C73.9097 132.877 73.631 131.661 73.479 130.445C73.327 129.204 73.251 128.076 73.251 127.063C73.251 126.151 73.327 125.1 73.479 123.909C73.631 122.718 73.897 121.515 74.277 120.299C74.6823 119.058 75.265 117.918 76.025 116.879C76.785 115.815 77.773 114.966 78.989 114.333C80.2303 113.674 81.7377 113.345 83.511 113.345C85.2337 113.345 86.6903 113.662 87.881 114.295C89.097 114.928 90.0723 115.764 90.807 116.803C91.567 117.816 92.1497 118.944 92.555 120.185C92.9857 121.401 93.277 122.617 93.429 123.833C93.581 125.049 93.657 126.138 93.657 127.101C93.657 128.114 93.5683 129.242 93.391 130.483C93.239 131.699 92.9477 132.915 92.517 134.131C92.1117 135.347 91.529 136.462 90.769 137.475C90.0343 138.488 89.0717 139.299 87.881 139.907C86.7157 140.515 85.2843 140.819 83.587 140.819ZM83.435 133.827C84.0937 133.827 84.6257 133.675 85.031 133.371C85.4363 133.042 85.753 132.624 85.981 132.117C86.209 131.61 86.3737 131.066 86.475 130.483C86.5763 129.875 86.6397 129.292 86.665 128.735C86.6903 128.152 86.703 127.658 86.703 127.253V127.063C86.703 125.594 86.5763 124.365 86.323 123.377C86.095 122.364 85.7403 121.604 85.259 121.097C84.803 120.565 84.2077 120.299 83.473 120.299C82.713 120.299 82.0923 120.552 81.611 121.059C81.1297 121.566 80.775 122.326 80.547 123.339C80.319 124.352 80.205 125.606 80.205 127.101C80.205 128.545 80.319 129.774 80.547 130.787C80.8003 131.775 81.1677 132.535 81.649 133.067C82.1303 133.574 82.7257 133.827 83.435 133.827ZM101.577 141.009C101.223 140.806 100.931 140.591 100.703 140.363C100.501 140.16 100.387 139.92 100.361 139.641C100.336 139.362 100.425 139.058 100.627 138.729L114.307 112.927C114.51 112.572 114.725 112.319 114.953 112.167C115.181 111.99 115.447 111.914 115.751 111.939C116.055 111.964 116.397 112.091 116.777 112.319C117.183 112.547 117.487 112.788 117.689 113.041C117.892 113.269 117.993 113.51 117.993 113.763C117.993 113.991 117.892 114.257 117.689 114.561L103.933 140.515C103.756 140.87 103.553 141.11 103.325 141.237C103.123 141.364 102.869 141.402 102.565 141.351C102.287 141.3 101.957 141.186 101.577 141.009ZM101.577 127.519C99.6773 127.519 98.1447 126.886 96.9793 125.619C95.8393 124.352 95.2693 122.68 95.2693 120.603C95.2693 118.475 95.8267 116.778 96.9413 115.511C98.0813 114.244 99.614 113.611 101.539 113.611C103.541 113.611 105.099 114.232 106.213 115.473C107.328 116.689 107.885 118.386 107.885 120.565C107.885 122.769 107.341 124.479 106.251 125.695C105.162 126.911 103.604 127.519 101.577 127.519ZM101.539 122.579C102.173 122.579 102.629 122.414 102.907 122.085C103.186 121.756 103.325 121.236 103.325 120.527C103.325 119.792 103.186 119.286 102.907 119.007C102.654 118.703 102.198 118.551 101.539 118.551C100.906 118.551 100.45 118.703 100.171 119.007C99.918 119.286 99.7913 119.792 99.7913 120.527C99.7913 121.262 99.918 121.794 100.171 122.123C100.45 122.427 100.906 122.579 101.539 122.579ZM116.473 140.401C114.573 140.401 113.041 139.768 111.875 138.501C110.71 137.234 110.127 135.562 110.127 133.485C110.127 131.332 110.697 129.634 111.837 128.393C112.977 127.126 114.51 126.493 116.435 126.493C118.437 126.493 119.982 127.101 121.071 128.317C122.186 129.533 122.743 131.243 122.743 133.447C122.743 135.676 122.199 137.399 121.109 138.615C120.045 139.806 118.5 140.401 116.473 140.401ZM116.435 135.461C117.094 135.461 117.55 135.309 117.803 135.005C118.082 134.676 118.221 134.144 118.221 133.409C118.221 132.674 118.082 132.168 117.803 131.889C117.55 131.585 117.094 131.433 116.435 131.433C115.802 131.433 115.346 131.585 115.067 131.889C114.814 132.193 114.687 132.712 114.687 133.447C114.687 134.182 114.814 134.701 115.067 135.005C115.346 135.309 115.802 135.461 116.435 135.461Z" fill="url(#paint2_linear_15_31)"/>
</g>
<defs>
<linearGradient id="paint0_linear_15_31" x1="429.672" y1="8.83204" x2="576.918" y2="407.765" gradientUnits="userSpaceOnUse">
<stop stop-color="#5D81FD"/>
<stop offset="1" stop-color="#5D81FD"/>
</linearGradient>
<linearGradient id="paint1_linear_15_31" x1="-1.25" y1="87.75" x2="241.25" y2="14" gradientUnits="userSpaceOnUse">
<stop stop-color="#5D81FD"/>
<stop offset="1" stop-color="#E9A6F1"/>
</linearGradient>
<linearGradient id="paint2_linear_15_31" x1="23.0237" y1="144.191" x2="116.492" y2="130.843" gradientUnits="userSpaceOnUse">
<stop stop-color="#5D81FD"/>
<stop offset="1" stop-color="#E9A6F1"/>
</linearGradient>
<clipPath id="clip0_15_31">
<rect width="466" height="417" rx="16" fill="white"/>
</clipPath>
</defs>
</svg>
