<svg width="331" height="286" viewBox="0 0 331 286" fill="none" xmlns="http://www.w3.org/2000/svg">
<path d="M73.4405 70.8523L171.535 148.593M171.535 148.593V23.8725M171.535 148.593L269.629 70.8523M171.535 148.593L293.732 176.837M171.535 148.593L225.907 261.568M171.535 148.593L117.162 261.289M171.535 148.593L49.3373 176.837" stroke="#607080"/>
<path d="M157.944 138.06L171.535 131.53L185.125 138.06L188.481 152.731L179.077 164.497H163.992L154.588 152.731L157.944 138.06Z" stroke="#607080"/>
<path d="M143.921 126.902L171.535 113.633L199.149 126.902L205.968 156.714L186.859 180.622H156.21L137.101 156.714L143.921 126.902Z" stroke="#607080"/>
<path d="M129.897 115.743L171.535 95.7359L213.173 115.743L223.456 160.696L194.642 196.747H148.427L119.613 160.696L129.897 115.743Z" stroke="#607080"/>
<path d="M115.873 104.584L171.535 77.8388L227.196 104.584L240.943 164.679L202.425 212.871H140.644L102.126 164.679L115.873 104.584Z" stroke="#607080"/>
<path d="M101.849 93.4256L171.535 59.9417L241.22 93.4256L258.431 168.661L210.208 228.996H132.862L84.6384 168.661L101.849 93.4256Z" stroke="#607080"/>
<path d="M87.825 82.2669L171.535 42.0447L255.244 82.2669L275.918 172.644L217.99 245.121H125.079L67.1509 172.644L87.825 82.2669Z" stroke="#607080"/>
<path d="M73.8012 71.1082L171.535 24.1476L269.268 71.1082L293.406 176.626L225.773 261.246H117.296L49.6634 176.626L73.8012 71.1082Z" stroke="#607080"/>
<g filter="url(#filter0_d_104_4111)">
<rect x="263.902" y="64.8613" width="12" height="12" rx="3" fill="#94A3B3"/>
<rect x="264.902" y="65.8613" width="10" height="10" rx="2" fill="#020203"/>
</g>
<g filter="url(#filter1_d_104_4111)">
<rect x="287.445" y="170.566" width="12" height="12" rx="3" fill="#94A3B3"/>
<rect x="288.445" y="171.566" width="10" height="10" rx="2" fill="#020203"/>
</g>
<g filter="url(#filter2_d_104_4111)">
<rect x="44.1714" y="170.566" width="12" height="12" rx="3" fill="#94A3B3"/>
<rect x="45.1714" y="171.566" width="10" height="10" rx="2" fill="#020203"/>
</g>
<g filter="url(#filter3_d_104_4111)">
<rect x="111.436" y="255.577" width="12" height="12" rx="3" fill="#94A3B3"/>
<rect x="112.436" y="256.577" width="10" height="10" rx="2" fill="#020203"/>
</g>
<g filter="url(#filter4_d_104_4111)">
<rect x="219.62" y="255.577" width="12" height="12" rx="3" fill="#94A3B3"/>
<rect x="220.62" y="256.577" width="10" height="10" rx="2" fill="#020203"/>
</g>
<g filter="url(#filter5_d_104_4111)">
<rect x="67.7141" y="64.8613" width="12" height="12" rx="3" fill="#94A3B3"/>
<rect x="68.7141" y="65.8613" width="10" height="10" rx="2" fill="#020203"/>
</g>
<path d="M176.814 11.6876C176.515 11.6876 176.259 11.6343 176.046 11.5276C175.843 11.4103 175.694 11.2396 175.598 11.0156L171.726 2.16762C171.555 1.77296 171.513 1.46896 171.598 1.25562C171.694 1.03162 171.945 0.823624 172.35 0.631624C172.627 0.471624 172.862 0.391624 173.054 0.391624C173.257 0.380958 173.427 0.444958 173.566 0.583624C173.715 0.711624 173.843 0.908958 173.95 1.17562L176.782 8.26362L179.63 1.22362C179.737 0.946291 179.859 0.738291 179.998 0.599625C180.147 0.460958 180.323 0.391624 180.526 0.391624C180.729 0.391624 180.969 0.471624 181.246 0.631624C181.705 0.844957 181.961 1.06896 182.014 1.30362C182.078 1.52762 182.025 1.83162 181.854 2.21562L177.982 11.0156C177.886 11.2183 177.731 11.3836 177.518 11.5116C177.315 11.629 177.081 11.6876 176.814 11.6876ZM185.039 11.6876C184.655 11.6876 184.378 11.6343 184.207 11.5276C184.036 11.4103 183.93 11.2556 183.887 11.0636C183.855 10.8716 183.839 10.6743 183.839 10.4716V1.70362C183.839 1.50096 183.855 1.30896 183.887 1.12762C183.93 0.935624 184.036 0.786291 184.207 0.679625C184.378 0.562291 184.66 0.503624 185.055 0.503624C185.46 0.503624 185.743 0.562291 185.903 0.679625C186.074 0.796958 186.175 0.946291 186.207 1.12762C186.25 1.30896 186.271 1.50629 186.271 1.71962V4.48762L189.695 0.903625C189.908 0.690291 190.1 0.540957 190.271 0.455625C190.452 0.370291 190.634 0.354291 190.815 0.407624C191.007 0.460958 191.21 0.594291 191.423 0.807625C191.786 1.13829 191.967 1.43162 191.967 1.68762C191.978 1.93296 191.828 2.21029 191.519 2.51962L187.839 6.10362L191.551 9.65562C191.882 9.98629 192.036 10.285 192.015 10.5516C192.004 10.8076 191.818 11.085 191.455 11.3836C191.199 11.597 190.975 11.7303 190.783 11.7836C190.602 11.8476 190.431 11.8316 190.271 11.7356C190.111 11.6503 189.93 11.4956 189.727 11.2716L186.271 7.67162V10.4876C186.271 10.6903 186.25 10.8876 186.207 11.0796C186.175 11.261 186.074 11.4103 185.903 11.5276C185.732 11.6343 185.444 11.6876 185.039 11.6876Z" fill="#94A3B3"/>
<path d="M275.469 57.5489C275.17 57.5489 274.914 57.4956 274.701 57.3889C274.498 57.2716 274.349 57.1009 274.253 56.8769L270.381 48.0289C270.21 47.6342 270.168 47.3302 270.253 47.1169C270.349 46.8929 270.6 46.6849 271.005 46.4929C271.282 46.3329 271.517 46.2529 271.709 46.2529C271.912 46.2422 272.082 46.3062 272.221 46.4449C272.37 46.5729 272.498 46.7702 272.605 47.0369L275.437 54.1249L278.285 47.0849C278.392 46.8076 278.514 46.5996 278.653 46.4609C278.802 46.3222 278.978 46.2529 279.181 46.2529C279.384 46.2529 279.624 46.3329 279.901 46.4929C280.36 46.7062 280.616 46.9302 280.669 47.1649C280.733 47.3889 280.68 47.6929 280.509 48.0769L276.637 56.8769C276.541 57.0796 276.386 57.2449 276.173 57.3729C275.97 57.4902 275.736 57.5489 275.469 57.5489ZM283.55 57.5489C283.177 57.5489 282.905 57.4902 282.734 57.3729C282.574 57.2556 282.467 57.1062 282.414 56.9249C282.361 56.7329 282.334 56.5302 282.334 56.3169V47.5649C282.334 47.3622 282.355 47.1702 282.398 46.9889C282.441 46.7969 282.547 46.6422 282.718 46.5249C282.889 46.4076 283.171 46.3542 283.566 46.3649H286.446C287.214 46.3649 287.929 46.5036 288.59 46.7809C289.251 47.0582 289.833 47.4476 290.334 47.9489C290.835 48.4502 291.225 49.0369 291.502 49.7089C291.779 50.3809 291.918 51.1116 291.918 51.9009C291.918 52.7009 291.779 53.4476 291.502 54.1409C291.225 54.8236 290.835 55.4209 290.334 55.9329C289.833 56.4342 289.246 56.8289 288.574 57.1169C287.913 57.4049 287.187 57.5489 286.398 57.5489H283.55ZM284.766 55.1009H286.446C287.022 55.1009 287.539 54.9676 287.998 54.7009C288.457 54.4236 288.819 54.0502 289.086 53.5809C289.353 53.1116 289.486 52.5729 289.486 51.9649C289.486 51.3569 289.353 50.8129 289.086 50.3329C288.819 49.8529 288.457 49.4796 287.998 49.2129C287.539 48.9356 287.017 48.7969 286.43 48.7969H284.766V55.1009Z" fill="#94A3B3"/>
<path d="M310.738 181.71C310.354 181.71 310.077 181.651 309.906 181.534C309.746 181.417 309.645 181.267 309.602 181.086C309.56 180.894 309.538 180.691 309.538 180.478V171.726C309.538 171.523 309.56 171.337 309.602 171.166C309.645 170.985 309.752 170.835 309.922 170.718C310.093 170.601 310.376 170.542 310.77 170.542C311.037 170.542 311.24 170.558 311.378 170.59C311.517 170.622 311.618 170.67 311.682 170.734C311.746 170.787 311.816 170.851 311.89 170.926L315.49 175.79H315.25L318.866 170.926C318.952 170.819 319.037 170.739 319.122 170.686C319.208 170.633 319.314 170.595 319.442 170.574C319.581 170.553 319.773 170.542 320.018 170.542C320.402 170.542 320.68 170.601 320.85 170.718C321.021 170.835 321.128 170.99 321.17 171.182C321.213 171.363 321.234 171.555 321.234 171.758V180.51C321.234 180.713 321.213 180.905 321.17 181.086C321.128 181.267 321.021 181.417 320.85 181.534C320.68 181.651 320.397 181.71 320.002 181.71C319.618 181.71 319.341 181.651 319.17 181.534C319 181.417 318.893 181.262 318.85 181.07C318.808 180.878 318.786 180.681 318.786 180.478V174.766L316.402 178.142C316.36 178.195 316.301 178.27 316.226 178.366C316.152 178.451 316.045 178.526 315.906 178.59C315.778 178.654 315.602 178.686 315.378 178.686C315.144 178.686 314.957 178.654 314.818 178.59C314.69 178.526 314.589 178.451 314.514 178.366C314.44 178.281 314.376 178.206 314.322 178.142L311.954 174.782V180.51C311.954 180.713 311.933 180.905 311.89 181.086C311.848 181.267 311.741 181.417 311.57 181.534C311.41 181.651 311.133 181.71 310.738 181.71ZM326.674 181.87C326.108 181.87 325.612 181.801 325.186 181.662C324.77 181.523 324.412 181.358 324.114 181.166C323.826 180.963 323.596 180.766 323.426 180.574C323.255 180.382 323.138 180.238 323.074 180.142C322.892 179.907 322.78 179.705 322.738 179.534C322.695 179.353 322.716 179.171 322.802 178.99C322.898 178.809 323.058 178.611 323.282 178.398C323.506 178.206 323.714 178.105 323.906 178.094C324.108 178.073 324.306 178.121 324.498 178.238C324.69 178.355 324.876 178.521 325.058 178.734C325.314 179.043 325.564 179.262 325.81 179.39C326.066 179.507 326.332 179.566 326.61 179.566C326.962 179.566 327.26 179.523 327.506 179.438C327.751 179.353 327.938 179.219 328.066 179.038C328.194 178.846 328.258 178.606 328.258 178.318C328.258 178.083 328.167 177.897 327.986 177.758C327.815 177.609 327.58 177.481 327.282 177.374C326.994 177.267 326.668 177.166 326.306 177.07C325.954 176.963 325.602 176.841 325.25 176.702C325.004 176.617 324.77 176.51 324.546 176.382C324.322 176.254 324.108 176.11 323.906 175.95C323.703 175.79 323.527 175.598 323.378 175.374C323.239 175.15 323.127 174.894 323.042 174.606C322.967 174.318 322.93 173.987 322.93 173.614C322.93 172.985 323.084 172.425 323.394 171.934C323.703 171.443 324.13 171.059 324.674 170.782C325.228 170.494 325.863 170.35 326.578 170.35C327.058 170.35 327.474 170.393 327.826 170.478C328.188 170.563 328.492 170.665 328.738 170.782C328.983 170.899 329.175 171.017 329.314 171.134C329.463 171.241 329.564 171.326 329.618 171.39C329.916 171.667 330.082 171.907 330.114 172.11C330.146 172.302 330.034 172.574 329.778 172.926C329.511 173.299 329.244 173.507 328.978 173.55C328.722 173.593 328.428 173.502 328.098 173.278C327.97 173.161 327.842 173.054 327.714 172.958C327.586 172.862 327.431 172.787 327.25 172.734C327.079 172.67 326.85 172.638 326.562 172.638C326.391 172.638 326.231 172.665 326.082 172.718C325.932 172.761 325.804 172.825 325.698 172.91C325.591 172.995 325.506 173.102 325.442 173.23C325.378 173.347 325.346 173.481 325.346 173.63C325.346 173.875 325.426 174.073 325.586 174.222C325.756 174.371 325.975 174.494 326.242 174.59C326.519 174.675 326.823 174.761 327.154 174.846C327.495 174.921 327.842 175.011 328.194 175.118C328.514 175.225 328.823 175.358 329.122 175.518C329.42 175.667 329.687 175.859 329.922 176.094C330.156 176.329 330.343 176.622 330.482 176.974C330.631 177.326 330.706 177.758 330.706 178.27C330.706 178.91 330.583 179.459 330.338 179.918C330.092 180.377 329.767 180.75 329.362 181.038C328.956 181.326 328.519 181.534 328.05 181.662C327.58 181.801 327.122 181.87 326.674 181.87Z" fill="#94A3B3"/>
<path d="M5.81649 181.838C5.34716 181.838 4.85116 181.763 4.32849 181.614C3.80583 181.465 3.29383 181.241 2.79249 180.942C2.29116 180.643 1.83249 180.265 1.41649 179.806C1.01116 179.337 0.685826 178.793 0.440493 178.174C0.205826 177.545 0.088493 176.83 0.088493 176.03C0.088493 175.262 0.205826 174.579 0.440493 173.982C0.685826 173.374 1.01116 172.846 1.41649 172.398C1.82183 171.95 2.27516 171.582 2.77649 171.294C3.27783 170.995 3.79516 170.777 4.32849 170.638C4.86183 170.489 5.36849 170.414 5.84849 170.414C6.39249 170.414 6.86716 170.478 7.27249 170.606C7.67783 170.734 8.00849 170.867 8.26449 171.006C8.52049 171.134 8.68049 171.225 8.74449 171.278C8.93649 171.395 9.11783 171.529 9.28849 171.678C9.45916 171.827 9.54983 172.025 9.56049 172.27C9.56049 172.398 9.53383 172.526 9.48049 172.654C9.43783 172.771 9.36849 172.899 9.27249 173.038C9.10183 173.283 8.93649 173.465 8.77649 173.582C8.62716 173.689 8.47249 173.742 8.31249 173.742C8.18449 173.742 8.06183 173.71 7.94449 173.646C7.83783 173.582 7.69916 173.497 7.52849 173.39C7.45383 173.337 7.34716 173.273 7.20849 173.198C7.06983 173.113 6.88316 173.038 6.64849 172.974C6.41383 172.899 6.11516 172.862 5.75249 172.862C5.37916 172.862 5.00049 172.931 4.61649 173.07C4.24316 173.198 3.89649 173.395 3.57649 173.662C3.25649 173.929 3.00049 174.27 2.80849 174.686C2.61649 175.091 2.52049 175.566 2.52049 176.11C2.52049 176.675 2.61649 177.161 2.80849 177.566C3.01116 177.971 3.27249 178.307 3.59249 178.574C3.91249 178.841 4.25916 179.043 4.63249 179.182C5.01649 179.31 5.38983 179.374 5.75249 179.374C6.07249 179.374 6.34449 179.342 6.56849 179.278C6.80316 179.214 7.00049 179.139 7.16049 179.054C7.33116 178.958 7.47516 178.873 7.59249 178.798C7.70983 178.723 7.82716 178.654 7.94449 178.59C8.07249 178.526 8.20049 178.494 8.32849 178.494C8.47783 178.494 8.62716 178.553 8.77649 178.67C8.93649 178.787 9.09649 178.974 9.25649 179.23C9.35249 179.369 9.42716 179.507 9.48049 179.646C9.53383 179.774 9.55516 179.902 9.54449 180.03C9.54449 180.254 9.45916 180.441 9.28849 180.59C9.11783 180.729 8.93649 180.857 8.74449 180.974C8.65916 181.017 8.49383 181.113 8.24849 181.262C8.00316 181.401 7.67783 181.529 7.27249 181.646C6.86716 181.774 6.38183 181.838 5.81649 181.838ZM12.3777 181.71C11.9937 181.71 11.7164 181.651 11.5457 181.534C11.3751 181.417 11.2684 181.262 11.2257 181.07C11.1937 180.878 11.1777 180.681 11.1777 180.478V171.726C11.1777 171.523 11.1937 171.331 11.2257 171.15C11.2684 170.969 11.3751 170.819 11.5457 170.702C11.7164 170.585 11.9991 170.526 12.3937 170.526H15.7217C16.1591 170.526 16.6071 170.606 17.0657 170.766C17.5244 170.926 17.9457 171.171 18.3297 171.502C18.7137 171.833 19.0231 172.243 19.2577 172.734C19.4924 173.225 19.6097 173.806 19.6097 174.478C19.6097 174.926 19.5404 175.358 19.4017 175.774C19.2737 176.19 19.0764 176.574 18.8097 176.926C18.5431 177.278 18.2124 177.582 17.8177 177.838C17.4231 178.083 16.9697 178.259 16.4577 178.366H13.6097V180.494C13.6097 180.697 13.5884 180.894 13.5457 181.086C13.5031 181.267 13.3964 181.417 13.2257 181.534C13.0551 181.651 12.7724 181.71 12.3777 181.71ZM19.1297 181.39C18.7351 181.678 18.4204 181.79 18.1857 181.726C17.9511 181.662 17.7057 181.454 17.4497 181.102L14.6337 177.07L17.3697 176.718L19.4337 179.678C19.6151 179.934 19.7271 180.153 19.7697 180.334C19.8231 180.515 19.7964 180.686 19.6897 180.846C19.5937 181.006 19.4071 181.187 19.1297 181.39ZM13.6097 175.966H15.8337C15.9831 175.966 16.1377 175.939 16.2977 175.886C16.4577 175.822 16.6017 175.731 16.7297 175.614C16.8577 175.497 16.9644 175.342 17.0497 175.15C17.1351 174.958 17.1777 174.729 17.1777 174.462C17.1777 174.153 17.1137 173.886 16.9857 173.662C16.8684 173.438 16.6977 173.267 16.4737 173.15C16.2497 173.022 15.9884 172.958 15.6897 172.958H13.6097V175.966ZM22.487 181.71C22.103 181.71 21.8257 181.651 21.655 181.534C21.495 181.417 21.3937 181.267 21.351 181.086C21.3083 180.894 21.287 180.691 21.287 180.478V171.726C21.287 171.523 21.3083 171.337 21.351 171.166C21.3937 170.985 21.5003 170.835 21.671 170.718C21.8417 170.601 22.1243 170.542 22.519 170.542C22.7857 170.542 22.9883 170.558 23.127 170.59C23.2657 170.622 23.367 170.67 23.431 170.734C23.495 170.787 23.5643 170.851 23.639 170.926L27.239 175.79H26.999L30.615 170.926C30.7003 170.819 30.7857 170.739 30.871 170.686C30.9563 170.633 31.063 170.595 31.191 170.574C31.3297 170.553 31.5217 170.542 31.767 170.542C32.151 170.542 32.4283 170.601 32.599 170.718C32.7697 170.835 32.8763 170.99 32.919 171.182C32.9617 171.363 32.983 171.555 32.983 171.758V180.51C32.983 180.713 32.9617 180.905 32.919 181.086C32.8763 181.267 32.7697 181.417 32.599 181.534C32.4283 181.651 32.1457 181.71 31.751 181.71C31.367 181.71 31.0897 181.651 30.919 181.534C30.7483 181.417 30.6417 181.262 30.599 181.07C30.5563 180.878 30.535 180.681 30.535 180.478V174.766L28.151 178.142C28.1083 178.195 28.0497 178.27 27.975 178.366C27.9003 178.451 27.7937 178.526 27.655 178.59C27.527 178.654 27.351 178.686 27.127 178.686C26.8923 178.686 26.7057 178.654 26.567 178.59C26.439 178.526 26.3377 178.451 26.263 178.366C26.1883 178.281 26.1243 178.206 26.071 178.142L23.703 174.782V180.51C23.703 180.713 23.6817 180.905 23.639 181.086C23.5963 181.267 23.4897 181.417 23.319 181.534C23.159 181.651 22.8817 181.71 22.487 181.71Z" fill="#94A3B3"/>
<path d="M51.897 57.5489C51.513 57.5489 51.2357 57.4956 51.065 57.3889C50.8944 57.2716 50.7877 57.1169 50.745 56.9249C50.713 56.7329 50.697 56.5356 50.697 56.3329V47.5649C50.697 47.3622 50.713 47.1702 50.745 46.9889C50.7877 46.7969 50.8944 46.6476 51.065 46.5409C51.2357 46.4236 51.5184 46.3649 51.913 46.3649C52.3184 46.3649 52.601 46.4236 52.761 46.5409C52.9317 46.6582 53.033 46.8076 53.065 46.9889C53.1077 47.1702 53.129 47.3676 53.129 47.5809V50.3489L56.553 46.7649C56.7664 46.5516 56.9584 46.4022 57.129 46.3169C57.3104 46.2316 57.4917 46.2156 57.673 46.2689C57.865 46.3222 58.0677 46.4556 58.281 46.6689C58.6437 46.9996 58.825 47.2929 58.825 47.5489C58.8357 47.7942 58.6864 48.0716 58.377 48.3809L54.697 51.9649L58.409 55.5169C58.7397 55.8476 58.8944 56.1462 58.873 56.4129C58.8624 56.6689 58.6757 56.9462 58.313 57.2449C58.057 57.4582 57.833 57.5916 57.641 57.6449C57.4597 57.7089 57.289 57.6929 57.129 57.5969C56.969 57.5116 56.7877 57.3569 56.585 57.1329L53.129 53.5329V56.3489C53.129 56.5516 53.1077 56.7489 53.065 56.9409C53.033 57.1222 52.9317 57.2716 52.761 57.3889C52.5904 57.4956 52.3024 57.5489 51.897 57.5489ZM61.7247 57.5489C61.3407 57.5489 61.0633 57.4902 60.8927 57.3729C60.7327 57.2556 60.6313 57.1062 60.5887 56.9249C60.546 56.7329 60.5247 56.5302 60.5247 56.3169V47.5649C60.5247 47.3622 60.546 47.1756 60.5887 47.0049C60.6313 46.8236 60.738 46.6742 60.9087 46.5569C61.0793 46.4396 61.362 46.3809 61.7567 46.3809C62.0233 46.3809 62.226 46.3969 62.3647 46.4289C62.5033 46.4609 62.6047 46.5089 62.6687 46.5729C62.7327 46.6262 62.802 46.6902 62.8767 46.7649L66.4767 51.6289H66.2367L69.8527 46.7649C69.938 46.6582 70.0233 46.5782 70.1087 46.5249C70.194 46.4716 70.3007 46.4342 70.4287 46.4129C70.5673 46.3916 70.7593 46.3809 71.0047 46.3809C71.3887 46.3809 71.666 46.4396 71.8367 46.5569C72.0073 46.6742 72.114 46.8289 72.1567 47.0209C72.1993 47.2022 72.2207 47.3942 72.2207 47.5969V56.3489C72.2207 56.5516 72.1993 56.7436 72.1567 56.9249C72.114 57.1062 72.0073 57.2556 71.8367 57.3729C71.666 57.4902 71.3833 57.5489 70.9887 57.5489C70.6047 57.5489 70.3273 57.4902 70.1567 57.3729C69.986 57.2556 69.8793 57.1009 69.8367 56.9089C69.794 56.7169 69.7727 56.5196 69.7727 56.3169V50.6049L67.3887 53.9809C67.346 54.0342 67.2873 54.1089 67.2127 54.2049C67.138 54.2902 67.0313 54.3649 66.8927 54.4289C66.7647 54.4929 66.5887 54.5249 66.3647 54.5249C66.13 54.5249 65.9433 54.4929 65.8047 54.4289C65.6767 54.3649 65.5753 54.2902 65.5007 54.2049C65.426 54.1196 65.362 54.0449 65.3087 53.9809L62.9407 50.6209V56.3489C62.9407 56.5516 62.9193 56.7436 62.8767 56.9249C62.834 57.1062 62.7273 57.2556 62.5567 57.3729C62.3967 57.4902 62.1193 57.5489 61.7247 57.5489Z" fill="#94A3B3"/>
<path d="M229.378 285.146C229.1 285.146 228.882 285.092 228.722 284.986C228.562 284.879 228.444 284.756 228.37 284.618C228.306 284.479 228.263 284.383 228.242 284.33L225.234 275.61C225.095 275.162 225.074 274.831 225.17 274.618C225.266 274.394 225.543 274.207 226.002 274.058C226.3 273.962 226.54 273.919 226.722 273.93C226.914 273.94 227.068 274.015 227.186 274.154C227.314 274.292 227.426 274.511 227.522 274.81L229.522 280.746L231.202 274.89C231.234 274.783 231.282 274.66 231.346 274.522C231.42 274.383 231.538 274.26 231.698 274.154C231.858 274.047 232.082 273.994 232.37 273.994C232.7 273.994 232.946 274.052 233.106 274.17C233.276 274.287 233.394 274.415 233.458 274.554C233.522 274.692 233.57 274.799 233.602 274.874L235.298 280.778L237.282 274.826C237.378 274.527 237.484 274.308 237.602 274.17C237.73 274.02 237.89 273.935 238.082 273.914C238.284 273.892 238.535 273.935 238.834 274.042C239.154 274.159 239.378 274.282 239.506 274.41C239.634 274.538 239.698 274.698 239.698 274.89C239.708 275.071 239.671 275.311 239.586 275.61L236.578 284.33C236.556 284.394 236.508 284.495 236.434 284.634C236.37 284.762 236.258 284.879 236.098 284.986C235.948 285.092 235.724 285.146 235.426 285.146C235.138 285.146 234.908 285.082 234.738 284.954C234.567 284.826 234.444 284.692 234.37 284.554C234.306 284.404 234.263 284.303 234.242 284.25L232.402 278.282L230.562 284.25C230.551 284.303 230.508 284.404 230.434 284.554C230.359 284.703 230.236 284.842 230.066 284.97C229.906 285.087 229.676 285.146 229.378 285.146ZM242.428 285.178C242.033 285.178 241.75 285.119 241.58 285.002C241.42 284.884 241.318 284.73 241.276 284.538C241.233 284.346 241.212 284.148 241.212 283.946V275.21C241.212 275.007 241.233 274.815 241.276 274.634C241.318 274.442 241.425 274.287 241.596 274.17C241.766 274.052 242.049 273.994 242.444 273.994H245.724C246.172 273.994 246.62 274.074 247.068 274.234C247.526 274.394 247.948 274.644 248.332 274.986C248.726 275.316 249.041 275.727 249.276 276.218C249.521 276.708 249.644 277.284 249.644 277.946C249.644 278.596 249.521 279.167 249.276 279.658C249.041 280.148 248.726 280.559 248.332 280.89C247.948 281.21 247.526 281.455 247.068 281.626C246.609 281.786 246.156 281.866 245.708 281.866H243.66V283.962C243.66 284.164 243.638 284.362 243.596 284.554C243.553 284.735 243.446 284.884 243.276 285.002C243.105 285.119 242.822 285.178 242.428 285.178ZM243.66 279.434H245.724C245.958 279.434 246.188 279.386 246.412 279.29C246.646 279.183 246.838 279.018 246.988 278.794C247.148 278.57 247.228 278.282 247.228 277.93C247.228 277.631 247.164 277.37 247.036 277.146C246.908 276.922 246.726 276.746 246.492 276.618C246.268 276.49 246.006 276.426 245.708 276.426H243.66V279.434Z" fill="#94A3B3"/>
<path d="M89.7395 285.338C89.1741 285.338 88.6781 285.268 88.2515 285.13C87.8355 284.991 87.4781 284.826 87.1795 284.634C86.8915 284.431 86.6621 284.234 86.4915 284.042C86.3208 283.85 86.2035 283.706 86.1395 283.61C85.9581 283.375 85.8461 283.172 85.8035 283.002C85.7608 282.82 85.7821 282.639 85.8675 282.458C85.9635 282.276 86.1235 282.079 86.3475 281.866C86.5715 281.674 86.7795 281.572 86.9715 281.562C87.1741 281.54 87.3715 281.588 87.5635 281.706C87.7555 281.823 87.9421 281.988 88.1235 282.202C88.3795 282.511 88.6301 282.73 88.8755 282.858C89.1315 282.975 89.3981 283.034 89.6755 283.034C90.0275 283.034 90.3261 282.991 90.5715 282.906C90.8168 282.82 91.0035 282.687 91.1315 282.506C91.2595 282.314 91.3235 282.074 91.3235 281.786C91.3235 281.551 91.2328 281.364 91.0515 281.226C90.8808 281.076 90.6461 280.948 90.3475 280.842C90.0595 280.735 89.7341 280.634 89.3715 280.538C89.0195 280.431 88.6675 280.308 88.3155 280.17C88.0701 280.084 87.8355 279.978 87.6115 279.85C87.3875 279.722 87.1741 279.578 86.9715 279.418C86.7688 279.258 86.5928 279.066 86.4435 278.842C86.3048 278.618 86.1928 278.362 86.1075 278.074C86.0328 277.786 85.9955 277.455 85.9955 277.082C85.9955 276.452 86.1501 275.892 86.4595 275.402C86.7688 274.911 87.1955 274.527 87.7395 274.25C88.2941 273.962 88.9288 273.818 89.6435 273.818C90.1235 273.818 90.5395 273.86 90.8915 273.946C91.2541 274.031 91.5581 274.132 91.8035 274.25C92.0488 274.367 92.2408 274.484 92.3795 274.602C92.5288 274.708 92.6301 274.794 92.6835 274.858C92.9821 275.135 93.1475 275.375 93.1795 275.578C93.2115 275.77 93.0995 276.042 92.8435 276.394C92.5768 276.767 92.3101 276.975 92.0435 277.018C91.7875 277.06 91.4941 276.97 91.1635 276.746C91.0355 276.628 90.9075 276.522 90.7795 276.426C90.6515 276.33 90.4968 276.255 90.3155 276.202C90.1448 276.138 89.9155 276.106 89.6274 276.106C89.4568 276.106 89.2968 276.132 89.1475 276.186C88.9981 276.228 88.8701 276.292 88.7635 276.378C88.6568 276.463 88.5715 276.57 88.5075 276.698C88.4435 276.815 88.4115 276.948 88.4115 277.098C88.4115 277.343 88.4915 277.54 88.6515 277.69C88.8221 277.839 89.0408 277.962 89.3075 278.058C89.5848 278.143 89.8888 278.228 90.2195 278.314C90.5608 278.388 90.9075 278.479 91.2595 278.586C91.5795 278.692 91.8888 278.826 92.1875 278.986C92.4861 279.135 92.7528 279.327 92.9875 279.562C93.2221 279.796 93.4088 280.09 93.5475 280.442C93.6968 280.794 93.7715 281.226 93.7715 281.738C93.7715 282.378 93.6488 282.927 93.4035 283.386C93.1581 283.844 92.8328 284.218 92.4275 284.506C92.0221 284.794 91.5848 285.002 91.1155 285.13C90.6461 285.268 90.1875 285.338 89.7395 285.338ZM96.5938 285.178C96.2098 285.178 95.9325 285.124 95.7618 285.018C95.5912 284.9 95.4845 284.746 95.4418 284.554C95.4098 284.362 95.3938 284.164 95.3938 283.962V275.21C95.3938 274.74 95.4845 274.42 95.6658 274.25C95.8472 274.079 96.1725 273.994 96.6418 273.994H102.69C102.903 273.994 103.1 274.015 103.282 274.058C103.463 274.09 103.612 274.191 103.73 274.362C103.847 274.532 103.906 274.82 103.906 275.226C103.906 275.61 103.847 275.887 103.73 276.058C103.612 276.228 103.458 276.335 103.266 276.378C103.084 276.41 102.887 276.426 102.674 276.426H97.8258V278.49H101.122C101.335 278.49 101.522 278.506 101.682 278.538C101.852 278.57 101.986 278.66 102.082 278.81C102.178 278.959 102.226 279.21 102.226 279.562C102.226 279.892 102.178 280.132 102.082 280.282C101.986 280.431 101.852 280.522 101.682 280.554C101.511 280.586 101.314 280.602 101.09 280.602H97.8258V282.746H102.69C102.903 282.746 103.1 282.767 103.282 282.81C103.463 282.852 103.612 282.959 103.73 283.13C103.847 283.29 103.906 283.572 103.906 283.978C103.906 284.362 103.847 284.639 103.73 284.81C103.612 284.98 103.458 285.082 103.266 285.114C103.084 285.156 102.887 285.178 102.674 285.178H96.5938ZM110.655 285.338C109.887 285.338 109.162 285.194 108.479 284.906C107.807 284.607 107.215 284.202 106.703 283.69C106.202 283.167 105.802 282.564 105.503 281.882C105.215 281.199 105.071 280.463 105.071 279.674C105.071 278.874 105.21 278.127 105.487 277.434C105.775 276.73 106.165 276.111 106.655 275.578C107.157 275.044 107.738 274.628 108.399 274.33C109.061 274.031 109.77 273.882 110.527 273.882C111.295 273.882 112.015 274.031 112.687 274.33C113.37 274.618 113.962 275.023 114.463 275.546C114.965 276.068 115.359 276.676 115.647 277.37C115.946 278.063 116.095 278.815 116.095 279.626C116.095 280.404 115.951 281.14 115.663 281.834C115.386 282.516 114.997 283.124 114.495 283.658C113.994 284.18 113.413 284.591 112.751 284.89C112.101 285.188 111.402 285.338 110.655 285.338ZM110.575 282.906C111.002 282.906 111.402 282.82 111.775 282.65C112.149 282.479 112.474 282.25 112.751 281.962C113.039 281.663 113.258 281.316 113.407 280.922C113.567 280.516 113.647 280.079 113.647 279.61C113.647 279.162 113.567 278.74 113.407 278.346C113.247 277.94 113.023 277.588 112.735 277.29C112.458 276.98 112.133 276.74 111.759 276.57C111.397 276.399 111.002 276.314 110.575 276.314C110.159 276.314 109.765 276.399 109.391 276.57C109.029 276.74 108.703 276.98 108.415 277.29C108.138 277.588 107.914 277.94 107.743 278.346C107.583 278.74 107.503 279.167 107.503 279.626C107.503 280.074 107.583 280.5 107.743 280.906C107.914 281.3 108.138 281.647 108.415 281.946C108.703 282.244 109.029 282.479 109.391 282.65C109.754 282.82 110.149 282.906 110.575 282.906Z" fill="#94A3B3"/>
<g filter="url(#filter6_d_104_4111)">
<rect x="165.808" y="19" width="12" height="12" rx="3" fill="#94A3B3"/>
<rect x="166.808" y="20" width="10" height="10" rx="2" fill="#020203"/>
</g>
<path d="M172.095 132.653L144.629 128.738L137.342 157.262L157.521 182.43L195.077 196.971L188.351 152.787L172.095 132.653Z" fill="#F384FF" fill-opacity="0.45" stroke="#F384FF" stroke-width="2"/>
<rect x="168.792" y="129.916" width="5" height="5" rx="2.5" fill="#F384FF" stroke="#020203"/>
<rect x="185.048" y="149.491" width="5" height="5" rx="2.5" fill="#F384FF" stroke="#020203"/>
<rect x="191.775" y="193.115" width="5" height="5" rx="2.5" fill="#F384FF" stroke="#020203"/>
<rect x="154.779" y="179.133" width="5" height="5" rx="2.5" fill="#F384FF" stroke="#020203"/>
<rect x="134.6" y="154.525" width="5" height="5" rx="2.5" fill="#F384FF" stroke="#020203"/>
<rect x="142.621" y="125.619" width="5" height="5" rx="2.5" fill="#F384FF" stroke="#020203"/>
<defs>
<filter id="filter0_d_104_4111" x="254.902" y="59.8613" width="29.4529" height="29.4228" filterUnits="userSpaceOnUse" color-interpolation-filters="sRGB">
<feFlood flood-opacity="0" result="BackgroundImageFix"/>
<feColorMatrix in="SourceAlpha" type="matrix" values="0 0 0 0 0 0 0 0 0 0 0 0 0 0 0 0 0 0 127 0" result="hardAlpha"/>
<feOffset dy="4"/>
<feGaussianBlur stdDeviation="4"/>
<feColorMatrix type="matrix" values="0 0 0 0 0.486275 0 0 0 0 0.301961 0 0 0 0 1 0 0 0 0.16 0"/>
<feBlend mode="multiply" in2="BackgroundImageFix" result="effect1_dropShadow_104_4111"/>
<feBlend mode="normal" in="SourceGraphic" in2="effect1_dropShadow_104_4111" result="shape"/>
</filter>
<filter id="filter1_d_104_4111" x="278.445" y="165.566" width="29.4529" height="29.4228" filterUnits="userSpaceOnUse" color-interpolation-filters="sRGB">
<feFlood flood-opacity="0" result="BackgroundImageFix"/>
<feColorMatrix in="SourceAlpha" type="matrix" values="0 0 0 0 0 0 0 0 0 0 0 0 0 0 0 0 0 0 127 0" result="hardAlpha"/>
<feOffset dy="4"/>
<feGaussianBlur stdDeviation="4"/>
<feColorMatrix type="matrix" values="0 0 0 0 0.486275 0 0 0 0 0.301961 0 0 0 0 1 0 0 0 0.16 0"/>
<feBlend mode="multiply" in2="BackgroundImageFix" result="effect1_dropShadow_104_4111"/>
<feBlend mode="normal" in="SourceGraphic" in2="effect1_dropShadow_104_4111" result="shape"/>
</filter>
<filter id="filter2_d_104_4111" x="35.1714" y="165.566" width="29.4529" height="29.4228" filterUnits="userSpaceOnUse" color-interpolation-filters="sRGB">
<feFlood flood-opacity="0" result="BackgroundImageFix"/>
<feColorMatrix in="SourceAlpha" type="matrix" values="0 0 0 0 0 0 0 0 0 0 0 0 0 0 0 0 0 0 127 0" result="hardAlpha"/>
<feOffset dy="4"/>
<feGaussianBlur stdDeviation="4"/>
<feColorMatrix type="matrix" values="0 0 0 0 0.486275 0 0 0 0 0.301961 0 0 0 0 1 0 0 0 0.16 0"/>
<feBlend mode="multiply" in2="BackgroundImageFix" result="effect1_dropShadow_104_4111"/>
<feBlend mode="normal" in="SourceGraphic" in2="effect1_dropShadow_104_4111" result="shape"/>
</filter>
<filter id="filter3_d_104_4111" x="102.436" y="250.577" width="29.4529" height="29.4228" filterUnits="userSpaceOnUse" color-interpolation-filters="sRGB">
<feFlood flood-opacity="0" result="BackgroundImageFix"/>
<feColorMatrix in="SourceAlpha" type="matrix" values="0 0 0 0 0 0 0 0 0 0 0 0 0 0 0 0 0 0 127 0" result="hardAlpha"/>
<feOffset dy="4"/>
<feGaussianBlur stdDeviation="4"/>
<feColorMatrix type="matrix" values="0 0 0 0 0.486275 0 0 0 0 0.301961 0 0 0 0 1 0 0 0 0.16 0"/>
<feBlend mode="multiply" in2="BackgroundImageFix" result="effect1_dropShadow_104_4111"/>
<feBlend mode="normal" in="SourceGraphic" in2="effect1_dropShadow_104_4111" result="shape"/>
</filter>
<filter id="filter4_d_104_4111" x="210.62" y="250.577" width="29.4529" height="29.4228" filterUnits="userSpaceOnUse" color-interpolation-filters="sRGB">
<feFlood flood-opacity="0" result="BackgroundImageFix"/>
<feColorMatrix in="SourceAlpha" type="matrix" values="0 0 0 0 0 0 0 0 0 0 0 0 0 0 0 0 0 0 127 0" result="hardAlpha"/>
<feOffset dy="4"/>
<feGaussianBlur stdDeviation="4"/>
<feColorMatrix type="matrix" values="0 0 0 0 0.486275 0 0 0 0 0.301961 0 0 0 0 1 0 0 0 0.16 0"/>
<feBlend mode="multiply" in2="BackgroundImageFix" result="effect1_dropShadow_104_4111"/>
<feBlend mode="normal" in="SourceGraphic" in2="effect1_dropShadow_104_4111" result="shape"/>
</filter>
<filter id="filter5_d_104_4111" x="58.7141" y="59.8613" width="29.4529" height="29.4228" filterUnits="userSpaceOnUse" color-interpolation-filters="sRGB">
<feFlood flood-opacity="0" result="BackgroundImageFix"/>
<feColorMatrix in="SourceAlpha" type="matrix" values="0 0 0 0 0 0 0 0 0 0 0 0 0 0 0 0 0 0 127 0" result="hardAlpha"/>
<feOffset dy="4"/>
<feGaussianBlur stdDeviation="4"/>
<feColorMatrix type="matrix" values="0 0 0 0 0.486275 0 0 0 0 0.301961 0 0 0 0 1 0 0 0 0.16 0"/>
<feBlend mode="multiply" in2="BackgroundImageFix" result="effect1_dropShadow_104_4111"/>
<feBlend mode="normal" in="SourceGraphic" in2="effect1_dropShadow_104_4111" result="shape"/>
</filter>
<filter id="filter6_d_104_4111" x="156.808" y="14" width="29.4529" height="29.4228" filterUnits="userSpaceOnUse" color-interpolation-filters="sRGB">
<feFlood flood-opacity="0" result="BackgroundImageFix"/>
<feColorMatrix in="SourceAlpha" type="matrix" values="0 0 0 0 0 0 0 0 0 0 0 0 0 0 0 0 0 0 127 0" result="hardAlpha"/>
<feOffset dy="4"/>
<feGaussianBlur stdDeviation="4"/>
<feColorMatrix type="matrix" values="0 0 0 0 0.486275 0 0 0 0 0.301961 0 0 0 0 1 0 0 0 0.16 0"/>
<feBlend mode="multiply" in2="BackgroundImageFix" result="effect1_dropShadow_104_4111"/>
<feBlend mode="normal" in="SourceGraphic" in2="effect1_dropShadow_104_4111" result="shape"/>
</filter>
</defs>
</svg>
